{
	"asset":{
		"generator":"Khronos glTF Blender I/O v3.6.27",
		"version":"2.0"
	},
	"scene":0,
	"scenes":[
		{
			"name":"Scene",
			"nodes":[
				3
			]
		}
	],
	"nodes":[
		{
			"mesh":0,
			"name":"defaultMaterial",
			"translation":[
				0.61297607421875,
				-6.476480484008789,
				14.640046119689941
			]
		},
		{
			"children":[
				0
			],
			"name":"Computer_Low",
			"rotation":[
				-0.1736479103565216,
				0,
				0,
				0.9848079085350037
			],
			"scale":[
				1.5321249961853027,
				1.5321252346038818,
				1.5321252346038818
			],
			"translation":[
				15.729080200195312,
				5.276202201843262,
				-42.32661056518555
			]
		},
		{
			"children":[
				1
			],
			"name":"Collada visual scene group",
			"rotation":[
				0.70710688829422,
				0,
				0,
				0.7071066498756409
			]
		},
		{
			"children":[
				2
			],
			"name":"Sketchfab_model",
			"rotation":[
				-0.70710688829422,
				0,
				0,
				0.7071066498756409
			]
		}
	],
	"materials":[
		{
			"doubleSided":true,
			"emissiveFactor":[
				1,
				1,
				1
			],
			"emissiveTexture":{
				"index":0
			},
			"name":"Material__16",
			"normalTexture":{
				"index":1
			},
			"pbrMetallicRoughness":{
				"baseColorTexture":{
					"index":2
				},
				"metallicRoughnessTexture":{
					"index":3
				}
			}
		}
	],
	"meshes":[
		{
			"name":"defaultMaterial",
			"primitives":[
				{
					"attributes":{
						"POSITION":0,
						"NORMAL":1,
						"TEXCOORD_0":2
					},
					"indices":3,
					"material":0
				}
			]
		}
	],
	"textures":[
		{
			"sampler":0,
			"source":0
		},
		{
			"sampler":0,
			"source":1
		},
		{
			"sampler":0,
			"source":2
		},
		{
			"sampler":0,
			"source":3
		}
	],
	"images":[
		{
			"mimeType":"image/jpeg",
			"name":"Material__16_emissive",
			"uri":"Material__16_emissive.jpg"
		},
		{
			"mimeType":"image/png",
			"name":"Material__16_normal",
			"uri":"Material__16_normal.png"
		},
		{
			"mimeType":"image/jpeg",
			"name":"Material__16_baseColor",
			"uri":"Material__16_baseColor.jpg"
		},
		{
			"mimeType":"image/png",
			"name":"Material__16_metallicRoughness",
			"uri":"Material__16_metallicRoughness.png"
		}
	],
	"accessors":[
		{
			"bufferView":0,
			"componentType":5126,
			"count":11741,
			"max":[
				1.7791630029678345,
				19.37642478942871,
				22.09977149963379
			],
			"min":[
				-23.5729923248291,
				-14.811884880065918,
				-2.608664035797119
			],
			"type":"VEC3"
		},
		{
			"bufferView":1,
			"componentType":5126,
			"count":11741,
			"type":"VEC3"
		},
		{
			"bufferView":2,
			"componentType":5126,
			"count":11741,
			"type":"VEC2"
		},
		{
			"bufferView":3,
			"componentType":5123,
			"count":29244,
			"type":"SCALAR"
		}
	],
	"bufferViews":[
		{
			"buffer":0,
			"byteLength":140892,
			"byteOffset":0,
			"target":34962
		},
		{
			"buffer":0,
			"byteLength":140892,
			"byteOffset":140892,
			"target":34962
		},
		{
			"buffer":0,
			"byteLength":93928,
			"byteOffset":281784,
			"target":34962
		},
		{
			"buffer":0,
			"byteLength":58488,
			"byteOffset":375712,
			"target":34963
		}
	],
	"samplers":[
		{
			"magFilter":9729,
			"minFilter":9987
		}
	],
	"buffers":[
		{
			"byteLength":434200,
			"uri":"scene.bin"
		}
	]
}
