<svg width="164.0078125" height="164.0078125" viewBox="0 0 235.2 235.2" class="looka-1j8o68f"><defs id="SvgjsDefs1383"></defs><g id="SvgjsG1384" featurekey="rootContainer" transform="matrix(4.704,0,0,4.704,0,0)" fill="#111111"><path xmlns="http://www.w3.org/2000/svg" d="M50 25c0 8.88-3.62 15.67-10.6 20.11C35.53 47.58 29.93 50 25 50c-8.63 0-14.24-1.37-18.73-8C3.57 38 0 30.2 0 25c0-6.85 1.76-14.06 6.22-18.58S18.04 0 25 0c9.5 0 16.77 5.3 21 13.11 1.88 3.53 4 7.58 4 11.89z"></path></g><g id="SvgjsG1385" featurekey="symbolFeature-0" transform="matrix(0.7157509495555362,0,0,0.7157509495555362,81.4866660860073,19.112380795319485)" fill="#fcfcfc"><g xmlns="http://www.w3.org/2000/svg"><rect x="22.6" y="32.1" width="13" height="4.7"></rect><rect x="22.6" y="83.1" width="13" height="3.1"></rect><rect x="9.1" y="27.4" width="11" height="53.8"></rect><rect x="9.1" y="20.8" width="11" height="5.6"></rect><rect x="9.1" y="82.5" width="11" height="3.8"></rect><rect x="63.2" y="23" transform="matrix(0.9526 -0.3043 0.3043 0.9526 -4.6112 22.1104)" width="11" height="5.6"></rect><rect x="72.5" y="28.1" transform="matrix(0.9526 -0.3043 0.3043 0.9526 -13.0573 26.3359)" width="11" height="53.8"></rect><rect x="81.6" y="81.8" transform="matrix(0.9526 -0.3043 0.3043 0.9526 -21.3308 30.4741)" width="11" height="3.8"></rect><rect x="38" y="35.7" width="11" height="44.5"></rect><rect x="38" y="21.6" width="11" height="5.6"></rect><rect x="38" y="28.6" width="11" height="5.6"></rect><rect x="38" y="81.2" width="11" height="5.8"></rect><rect x="51.5" y="42.1" width="14.9" height="4.3"></rect><rect x="51.5" y="82.6" width="14.9" height="4.5"></rect><path d="M22.6,82.1h13V37.5h-13V82.1z M30.5,42.1h0.9v35.7h-0.9V42.1z M26.7,42.1h0.9v35.7h-0.9V42.1z"></path><path d="M51.5,81.8h14.9V47.5H51.5V81.8z M58.9,70.3c1.6,0,3,1.7,3,3.7c0,2.1-1.3,3.7-3,3.7c-1.6,0-3-1.7-3-3.7   C56,72,57.3,70.3,58.9,70.3z"></path></g></g><g id="SvgjsG1386" featurekey="nameFeature-0" transform="matrix(3.8309284810733333,0,0,3.8309284810733333,43.00000548018715,39.01958487363127)" fill="#fcfcfc"><path d="M14.24 16.64 c-0.08 0 -0.16 0.04 -0.16 0.08 c-0.04 0.04 0 0.04 0 0.04 c0.04 0 0.08 -0.04 0.12 -0.08 l-0.56 1.12 l-0.04 0 c-0.08 0 -0.08 0.04 -0.08 0.08 s0 0.08 0.04 0.08 l-0.2 0.36 c-0.04 0 -0.08 0.04 -0.08 0.12 l0 0.04 l-0.6 1.16 l0 0 l0 0 l-0.64 1.24 c-0.04 0.04 -0.12 0.04 -0.16 0.04 l0 0.04 l0.12 0 l-2.84 5.52 s-0.12 0.32 -0.28 0.8 l-0.04 0.04 l0 0.04 c-0.28 0.84 -0.76 2.16 -1.24 3.52 l-0.04 -0.04 c-0.04 0 -0.08 0 -0.08 0.04 c0 0 0 0.04 0.04 0.08 c0.04 -0.04 0.04 -0.08 0.08 -0.08 c-0.8 2.16 -1.56 4.32 -1.56 4.44 c0.28 -0.04 4.92 -0.36 6.48 -0.56 l0.08 2.32 c-0.12 0 -0.2 0.08 -0.32 0.12 c0.04 0.04 0.04 0.04 0.08 0.04 c0.08 0 0.16 -0.04 0.24 -0.08 l0.04 1 l0 0 l0 0 l0.04 1.08 l-0.08 0.08 l0 0 l0 0 l0 0 l0 0 c-0.04 -0.04 -0.12 -0.08 -0.16 0 c0 0 0.04 0.04 0.08 0.04 c0.04 0.04 0.12 0.04 0.08 -0.04 l0 0 l0 0 l0.08 0 l0 0.68 c-0.12 0 -0.28 0 -0.48 -0.04 c0.08 0 0.12 -0.04 0.2 -0.04 l-0.04 -0.04 c-0.08 0.04 -0.16 0.04 -0.24 0.08 l0 0 l-0.8 0 l0 0 c0 -0.04 -0.04 -0.04 -0.08 0 l-0.12 0 l0.12 0 c-0.12 -0.08 -0.2 -0.04 -0.24 0 l-0.48 0 l0 0 c-0.04 -0.04 -0.08 -0.04 -0.08 0 l-0.36 0 l0.04 -0.04 c-0.04 -0.04 -0.08 -0.04 -0.12 -0.08 c-0.08 0.04 -0.08 0.08 -0.04 0.12 c-0.28 -0.04 -0.56 -0.04 -0.84 -0.04 l-0.04 0 l-2.64 0 c0.04 0 0.04 -0.04 0.08 -0.08 c-0.04 0 -0.08 -0.04 -0.08 0 c-0.04 0 -0.08 0.04 -0.08 0.08 l-0.48 0 c0.04 0 0.08 -0.04 0.12 -0.08 c-0.08 0 -0.2 0.04 -0.28 0.08 c-2.56 0.04 -5 0.04 -5.72 0.08 c1.2 -2.52 2.4 -5.04 3.44 -7.44 l0.08 0 c-0.04 0 -0.08 0 -0.08 -0.04 c0.36 -0.8 0.68 -1.6 1.04 -2.36 c0.04 0.12 0.08 0.2 0.16 0.28 c0.04 -0.04 0.04 -0.08 0.08 -0.12 c-0.12 -0.04 -0.12 -0.16 -0.2 -0.24 c0 0 0 0.04 -0.04 0.04 c2.16 -5.04 3.6 -8.88 3.6 -9.12 c-0.04 0 -0.32 0 -0.72 0.04 c0.04 0 0.08 -0.04 0.16 -0.04 c-0.08 -0.04 -0.08 -0.04 -0.12 -0.04 s-0.12 0.04 -0.16 0.08 l0 0.04 c-1.04 0.08 -2.84 0.24 -4.04 0.4 c0.04 -0.04 0 -0.08 -0.04 -0.08 c-0.08 -0.04 -0.08 0 -0.12 0.08 l0 0.04 c-0.12 0 -0.24 0.04 -0.36 0.04 c0 0 0 -0.04 -0.04 -0.04 l0 0.04 c-0.2 0.04 -0.32 0.08 -0.44 0.08 l-0.56 -5.2 l0 0 l1.16 0 l0 0 l0 0 l11.28 0 c0.04 0.04 0.08 0.04 0.12 0 l0.12 0 z M2.36 16.52 c-0.12 0 -0.08 0.08 -0.04 0.2 l0 0 l0 0 c-0.04 0 0 0 0 0 l0 0 l0 0 c0.04 0 0.12 0 0.08 -0.08 c0 -0.04 0.04 -0.12 -0.04 -0.12 z M2.28 17.52 c0.16 0.04 0.2 0 0.28 -0.08 c-0.08 0.04 -0.16 0.08 -0.28 0.08 z M2.6 21.48 l0.08 -0.08 l-0.04 -0.04 c-0.04 0 -0.08 0.04 -0.08 0.08 z M2.88 17.52 c0.04 -0.04 0.08 -0.04 0.12 -0.04 l-0.08 -0.08 c-0.08 0.04 -0.16 0 -0.16 0.08 c0 0.04 0.08 0 0.12 0.04 z M3.88 20.92 c0.08 0 0.12 -0.04 0.12 -0.08 s-0.04 -0.04 -0.04 -0.04 c-0.04 0 -0.12 0.04 -0.16 0.08 c0.04 0 0.08 0.04 0.08 0.04 z M4.44 17.92 l0.08 -0.08 c-0.04 0 -0.08 -0.04 -0.12 -0.04 c0 0 -0.04 0 -0.04 0.04 z M5.2 17.88 c0.04 0 0.04 -0.04 0.04 -0.08 c-0.04 -0.08 -0.12 -0.04 -0.12 0 c-0.08 0.12 -0.2 -0.04 -0.24 0.08 c0 -0.04 -0.04 -0.08 -0.04 -0.08 c-0.04 -0.04 0 -0.12 -0.08 -0.08 s-0.16 0.08 -0.16 0.12 c0 0.08 0.08 0 0.16 0.04 c0.08 0.12 0.12 0.24 0.2 0.4 c0 0.04 0 0.08 0.08 0.08 c0 0 0.04 -0.08 0.04 -0.12 c-0.12 -0.16 0 -0.24 0.12 -0.36 z M5.48 18.04 c0.08 0 0.16 -0.08 0.08 -0.12 c-0.12 -0.08 -0.12 0.08 -0.2 0.12 l0.12 0 z M7.52 17.4 c0 0.04 0.04 0.08 0.04 0.08 c0.04 0 0.08 -0.04 0.12 -0.08 c-0.04 -0.04 -0.08 -0.04 -0.12 -0.08 c0 0.04 -0.04 0.08 -0.04 0.08 z M7.6 19.28 c0.04 -0.04 0.08 -0.08 0.16 -0.12 c-0.08 0 -0.08 -0.04 -0.12 -0.04 c0 0.04 -0.04 0.08 -0.08 0.12 z M1.36 39.08 c0.08 0 0.08 -0.08 0.12 -0.12 l-0.04 -0.04 c-0.12 0.04 -0.24 0.12 -0.4 0.2 c0.16 -0.04 0.24 -0.04 0.32 -0.04 z M1.64 38.16 c0.04 0 0.08 -0.04 0.08 -0.08 c0 -0.12 -0.08 -0.12 -0.2 -0.16 c0 0 -0.04 0.04 -0.08 0.04 c0.04 0.04 0.04 0.04 0.08 0.04 c0.08 0 0.08 0 0.08 0.04 c-0.04 0.08 0 0.12 0.04 0.12 z M1.88 39.16 c0.04 0 0.04 -0.04 0.08 -0.04 c-0.04 0 -0.08 -0.04 -0.16 -0.04 c-0.04 0 -0.08 0 -0.08 0.04 c0.04 0.12 0.12 0 0.16 0.04 z M2.04 39.2 c0.04 -0.08 0.12 -0.12 0.2 -0.16 c-0.08 0.04 -0.16 0.04 -0.24 0.08 l0 0.08 l0.04 0 z M2.6 38.08 c0.08 0 0.08 -0.04 0.08 -0.08 l0 -0.04 c-0.04 0.04 -0.08 0.04 -0.12 0.08 z M2.8 38.2 l0.12 -0.12 l-0.04 -0.04 c-0.04 0 -0.08 0.04 -0.08 0.08 l0 0.08 z M10 39.24 c0.04 0.08 0.08 0 0.08 0 c-0.08 0.04 -0.04 -0.04 -0.08 -0.12 c0 0.04 -0.04 0.08 0 0.12 z M10.32 39.88 c0.08 -0.04 0.12 -0.08 0.16 -0.12 l-0.04 -0.04 l-0.12 0.12 l0 0.04 z M11.04 39.2 c0.12 0.04 0.16 0 0.24 -0.04 l0 -0.04 c-0.08 0.04 -0.16 0.04 -0.24 0.08 z M10.8 38.6 c-0.04 -0.04 -0.04 0.04 -0.04 0.04 c0 0.04 0 0.08 0.04 0.08 c0.08 -0.04 0.16 -0.08 0.2 -0.12 c-0.04 -0.04 -0.12 0.08 -0.2 0 z M10.92 38.32 l0.12 0 c0.16 -0.04 0.04 -0.04 0 -0.08 c-0.08 -0.04 -0.08 0.04 -0.12 0.08 z M11.24 38.76 c-0.08 -0.16 0.04 -0.16 0.2 -0.2 l-0.16 0 c-0.24 -0.2 -0.12 0.12 -0.2 0.16 c-0.04 0.04 0.16 -0.04 0.12 0.08 c0 0 0.04 0.04 0.04 0 c0 0 0.04 -0.04 0 -0.04 z M11.44 38.76 l-0.04 -0.04 c-0.08 0.08 -0.12 0.16 -0.16 0.24 l0.04 0.04 c0.04 -0.08 0.12 -0.16 0.16 -0.24 z M11.12 37.84 c0.08 0 0.16 -0.04 0.24 -0.08 c0 -0.08 -0.08 0.04 -0.16 -0.04 c-0.04 0.04 -0.08 0.08 -0.16 0.08 c0.04 0 0.08 0.04 0.08 0.04 z M11.72 39.68 l0 -0.04 c-0.08 0.04 -0.16 0.04 -0.2 0.12 l0 0 l0 0 l0 0 l0 0 l0 0 l0 0 c-0.12 0.08 -0.16 -0.16 -0.32 -0.12 c0.08 0.04 0.08 0.12 0.08 0.2 c0.04 -0.08 0.08 -0.12 0.12 -0.04 c0.08 0.08 0.12 0.04 0.12 -0.04 l0 0 l0 0 c0.08 0.04 0.16 -0.04 0.2 -0.08 z M12.24 39.6 l-0.08 0 c0 -0.08 0.16 -0.08 0.08 -0.16 c-0.04 -0.04 -0.12 0 -0.12 0.12 c0 -0.04 -0.04 -0.04 -0.08 -0.04 c0 -0.04 -0.04 -0.04 -0.08 -0.08 c0 -0.04 0.12 -0.08 0.04 -0.08 c-0.04 -0.04 -0.12 0 -0.16 0.04 c-0.04 0.08 -0.04 0.2 -0.08 0.28 l0.04 0 c0.12 -0.08 0.2 -0.08 0.32 -0.04 c-0.04 0 -0.08 0.08 -0.12 0.08 c-0.08 0 -0.12 0.04 -0.08 0.08 c0 0.04 0.04 0.08 0.04 0.12 c0.04 -0.04 0.12 -0.04 0.12 -0.08 c0.04 -0.08 0.08 -0.12 0.12 -0.16 c0 -0.04 0.04 -0.04 0.04 -0.08 z M12.56 39.68 c0 -0.08 -0.24 0 -0.16 -0.2 c-0.04 0.08 -0.12 0.12 -0.08 0.16 c0.04 0.08 0.08 0.12 0.16 0.16 c0 0.04 0.08 0 0.12 -0.04 c-0.04 0 -0.04 -0.04 -0.04 -0.08 z M11.6 39.28 c0.32 -0.12 0.6 -0.2 0.92 -0.28 c-0.08 -0.08 -0.16 -0.08 -0.24 -0.04 l-0.36 0.12 c-0.12 0 -0.24 0.08 -0.36 0.12 c-0.04 0 -0.04 0.04 -0.04 0.04 s0.04 0.04 0.08 0.04 z M12.32 38.72 c0.04 0 0.08 0.04 0.08 0.08 c0.04 0 0.08 -0.04 0.12 -0.04 c-0.08 -0.04 -0.12 -0.08 -0.16 -0.08 z M12.52 37.4 c0 0 -0.08 0.08 0.04 0.12 c-0.04 -0.08 -0.04 -0.12 -0.04 -0.12 z M12.48 38.08 l-0.08 0.08 c0.04 0 0.04 0.04 0.08 0.04 s0.04 -0.04 0.08 -0.04 z M12.4 38.4 c-0.08 -0.08 -0.12 0.04 -0.16 0.08 c0.08 0 0.12 -0.04 0.2 -0.04 c0 -0.04 0 -0.04 -0.04 -0.04 z M11.8 38.52 c0.04 0.16 -0.12 0.12 -0.16 0.2 c-0.04 0.04 -0.08 0.08 -0.08 0.12 l0.04 0.04 c0.16 -0.04 0.24 -0.2 0.36 -0.28 c-0.04 -0.04 -0.04 -0.08 -0.08 -0.08 l-0.08 0 z M11.68 38.64 c0.04 0 0.04 -0.08 0.04 -0.08 l-0.12 0 c0 -0.04 0.12 -0.04 0.04 -0.08 c-0.04 -0.04 -0.04 -0.04 -0.08 -0.04 l0 0.16 c0.04 0 0.08 0 0.12 0.04 z M11.68 38.2 l0 -0.04 l-0.24 0.12 l0.04 0.04 c0.04 -0.04 0.12 -0.08 0.2 -0.12 z M11.56 35.4 c-0.16 0.04 -0.2 0.16 -0.28 0.24 l0.08 0.08 c0.08 -0.12 0.16 -0.2 0.2 -0.28 l0 -0.04 z M11.24 36.88 c-0.04 0 -0.04 0 -0.08 0.04 c0.04 0 0.04 0.04 0.08 0.04 c0 0 0.04 0 0.08 -0.04 c-0.04 -0.04 -0.08 -0.04 -0.08 -0.04 z M10.96 37.36 c0.04 0 0.08 0 0.16 -0.04 c-0.04 -0.04 -0.08 -0.04 -0.08 -0.04 c-0.04 0 -0.12 0.04 -0.16 0.04 c0.04 0 0.04 0.04 0.08 0.04 z M10.88 36.24 c-0.04 0 -0.04 0.04 -0.08 0.08 c0.04 0 0.04 0.04 0.08 0.04 c0.04 -0.04 0.12 -0.04 0.16 -0.08 c-0.04 0 -0.12 0 -0.16 -0.04 z M10.76 37.04 c-0.04 0.04 -0.04 0.04 -0.04 0.08 c-0.04 0 0 0.04 0 0.04 c0.04 0 0.08 -0.04 0.12 -0.08 c-0.04 0 -0.04 0 -0.08 -0.04 z M10.64 39.48 l-0.04 0.04 l0.04 -0.04 c0.08 0 0.24 0.16 0.24 -0.08 c0 0 0.04 -0.04 0.04 0 c0 0.08 0.08 0.08 0.08 0.04 c0.04 -0.04 0.04 -0.08 0.04 -0.12 c0 0 -0.04 -0.04 -0.08 -0.04 c-0.16 0 -0.24 0.12 -0.32 0.2 z M10.4 38.24 c0 0 -0.04 0 -0.04 0.04 l0.08 0.08 l0.08 -0.08 c-0.04 0 -0.08 -0.04 -0.12 -0.04 z M10.36 38.8 c-0.08 0 -0.16 0 -0.12 0.04 s0.12 0.04 0.2 0.08 l0.04 0 c-0.04 -0.04 -0.12 -0.08 -0.12 -0.12 z M10.08 36.04 c-0.08 0.08 0.08 0.12 0.08 0.16 c0 0 0.04 -0.04 0.04 -0.08 s-0.12 -0.08 -0.12 -0.08 z M9.8 37.44 l0 0.04 c0.12 0.12 0.16 -0.12 0.28 -0.08 c-0.12 -0.16 -0.2 -0.04 -0.28 0.04 z M9.6 37.52 c-0.08 0 -0.12 0.08 -0.2 0.12 c0.04 0 0.04 0.04 0.04 0.04 c0.08 -0.04 0.12 -0.08 0.2 -0.08 c0 -0.08 0 -0.12 -0.04 -0.08 z M9.52 39.76 c-0.08 0 -0.16 0.04 -0.2 0.08 c0 0.04 0.04 0 0.08 0.04 c0.08 -0.04 0.12 -0.08 0.2 -0.12 c-0.04 0 -0.04 -0.04 -0.08 0 z M9.12 37.68 l0 0 l0.16 0.16 c0 0 0.04 -0.04 0.04 -0.08 c-0.04 -0.04 -0.12 -0.08 -0.2 -0.08 z M6.76 39.76 c0.04 -0.04 0.08 -0.08 0.12 -0.08 l-0.08 -0.08 c-0.04 0.04 -0.04 0.08 -0.08 0.12 z M6.88 39.52 c0.2 -0.08 0.32 -0.2 0.52 -0.2 c-0.2 -0.2 -0.4 0.16 -0.6 0.04 l0 0.08 s-0.12 0 -0.04 0.08 c0.04 0.04 0.08 0.04 0.12 0 z M7.48 39.44 c0.04 -0.04 0.08 -0.04 0.12 -0.08 c-0.04 0 -0.04 -0.04 -0.04 -0.04 c-0.04 0.04 -0.08 0.04 -0.12 0.08 c0.04 0 0.04 0.04 0.04 0.04 z M7.44 39.16 l0.16 -0.16 l-0.04 -0.04 l-0.16 0.16 z M7.76 38.28 c0.04 0 0.04 0.04 0.04 0.04 c0.04 -0.04 0.12 -0.04 0.16 -0.08 c-0.04 0 -0.04 -0.04 -0.04 -0.04 c-0.04 0.04 -0.08 0.04 -0.16 0.08 z M7.96 39.68 c0.12 0.08 0.04 -0.04 0.08 -0.08 l-0.04 -0.04 c-0.04 0.04 -0.12 0 -0.12 0.08 c0 0.04 0 0.08 0.08 0.04 z M8.48 38.08 c0.12 0.04 0.2 0.04 0.32 -0.08 c-0.12 0.04 -0.24 0.08 -0.32 0.08 z M8.84 37.48 c-0.04 0 -0.12 0 -0.12 0.08 c0 0.04 0.04 0.08 0.08 0.08 c0.04 -0.04 0.08 -0.08 0.16 -0.12 c-0.04 0 -0.08 -0.04 -0.12 -0.04 z M8.56 36.96 c-0.08 0 -0.16 0 -0.2 0.12 c0.08 -0.04 0.12 -0.08 0.2 -0.12 z M8.32 38.2 c-0.16 -0.04 -0.24 -0.04 -0.32 0.08 c0.08 -0.04 0.16 -0.04 0.32 -0.08 z M8.08 35.84 c0 -0.04 -0.04 -0.04 -0.08 -0.08 c0 0.04 -0.04 0.08 -0.04 0.08 c0.04 0.04 0.04 0.04 0.08 0.04 z M7.96 35.4 c-0.08 0.08 -0.16 0 -0.2 0.12 l0.08 0 c0.08 0 0.12 0 0.16 -0.08 c0 0 -0.04 0 -0.04 -0.04 z M7.68 37.36 c-0.04 0 -0.12 0 -0.08 0.08 c0 0.04 0.04 0.12 0.12 0.12 s0.12 -0.04 0.12 -0.12 c0 -0.12 -0.08 -0.08 -0.16 -0.08 z M7.68 38.36 c-0.12 0 -0.16 0.08 -0.2 0.16 c0.12 0 0.16 -0.08 0.2 -0.16 z M7.44 37.48 c-0.08 0 -0.12 0.04 -0.16 0.12 c0.04 0 0.08 0 0.16 -0.04 c0.04 -0.04 0.04 -0.08 0 -0.08 z M7 38.36 c-0.04 -0.04 -0.12 -0.04 -0.2 -0.04 c0.08 0.08 0.12 0.08 0.2 0.08 l0 -0.04 z M6.84 39.12 c0 -0.04 -0.04 -0.08 -0.04 -0.08 c-0.04 0.04 -0.12 0.08 -0.12 0.12 c-0.04 0.04 0.04 0.04 0.08 0.04 c0.08 0.04 0.08 -0.04 0.08 -0.08 z M6.48 39.08 c0.12 0.08 0.16 -0.08 0.28 -0.08 c-0.12 -0.04 -0.16 -0.04 -0.24 -0.04 s-0.08 0.08 -0.04 0.12 z M6.56 38.36 l0 0.12 c0.08 0.08 0.08 -0.04 0.12 -0.04 c-0.04 -0.04 -0.08 -0.04 -0.12 -0.08 z M6.6 36.4 c-0.04 0.04 -0.12 0.08 -0.16 0.12 c0 0 0 0.04 0.04 0 c0.04 0 0.12 -0.04 0.24 -0.08 c-0.08 0 -0.08 -0.04 -0.12 -0.04 z M11.8 18.84 c0.04 -0.04 -0.08 -0.08 -0.16 0.08 c0.12 -0.08 0.2 -0.12 0.16 -0.08 z M10.8 17.08 c-0.04 0.04 -0.08 0.12 -0.12 0.16 l0 0 c0.04 0 0.08 -0.04 0.12 -0.08 l0 -0.08 z M10.88 17.16 c-0.08 0.04 -0.12 0.12 -0.12 0.2 c0 0 0.04 0 0.04 0.04 c0.04 -0.08 0.04 -0.12 0.08 -0.24 z M9.92 17.44 c0 0 -0.04 0.04 -0.08 0.04 c0.04 0.04 0.08 0.08 0.08 0.04 c0.04 0 0.04 -0.04 0.08 -0.04 c-0.04 -0.04 -0.04 -0.04 -0.08 -0.04 z M8.92 18.12 l-0.04 0 l0.32 0 c-0.12 -0.08 -0.2 0 -0.28 0 z M8.68 22.16 c-0.04 0 -0.04 0.04 -0.04 0.08 c0 0 0 0.08 0.04 0.04 c0.04 0 0.08 -0.04 0.08 -0.04 c-0.04 -0.04 -0.08 -0.04 -0.08 -0.08 z M7.76 25.04 c-0.2 -0.04 -0.12 0.2 -0.28 0.24 c0.04 0 0.04 0.04 0.04 0.04 c0.2 0 0.16 -0.2 0.24 -0.28 z M7.72 27.119999999999997 c-0.08 0 -0.16 0 -0.2 0.08 l0.04 0.04 c0.12 0.04 0.08 -0.08 0.16 -0.12 z M6.56 26.68 c-0.12 -0.04 -0.12 0.12 -0.2 0.16 c0.2 0.12 0.16 -0.08 0.2 -0.12 c0.04 0 0 -0.04 0 -0.04 z M6.48 27.28 c-0.08 0 -0.12 0 -0.12 0.04 c0.04 0.12 0.12 -0.04 0.16 0.04 l0.04 -0.04 c-0.04 -0.04 -0.04 -0.04 -0.08 -0.04 z M5.2 33.04 c0.2 0.08 0.28 -0.04 0.4 -0.12 c-0.12 0.04 -0.24 0.08 -0.4 0.12 z M5.52 35.68 c-0.08 0 -0.08 0.08 -0.12 0.12 c0 0.08 0.08 0.08 0.08 0.08 c0.04 -0.04 0.08 -0.04 0.16 -0.08 z M5.56 34.6 l0 0.04 c0.12 0.08 0.12 -0.08 0.24 -0.08 c-0.12 -0.08 -0.16 0.04 -0.24 0.04 z M5.76 33.480000000000004 c-0.08 -0.04 -0.12 0.04 -0.16 0.04 c0.04 0.04 0.08 0.08 0.16 0.08 s0 -0.08 0 -0.12 z M5.56 27.96 c-0.08 0.04 0.04 0.12 0.04 0.16 l0 0 l0 0 c0 -0.04 0.04 -0.08 0.08 -0.08 c-0.04 -0.04 -0.12 -0.08 -0.12 -0.08 z M5.6 29.96 l-0.2 0 l0 0.04 l0.2 0 l0 -0.04 z M5.32 30.4 c-0.04 0.04 -0.08 0.04 -0.16 0.08 c0.08 0.04 0.12 0 0.16 -0.04 l0 -0.04 z M5.16 32.64 c0 0 -0.04 0.04 -0.04 0.08 c0.04 0 0.04 0.04 0.08 0.04 c0 0 0.04 0 0.08 -0.04 c-0.04 -0.04 -0.08 -0.04 -0.12 -0.08 z M5.12 34.6 c-0.04 0.04 -0.12 0.08 -0.16 0.08 c0 0.04 0.04 0.04 0.04 0.04 c0.08 0 0.12 -0.04 0.16 -0.12 l-0.04 0 z M5.08 36.56 l-0.04 -0.04 c-0.12 0.04 -0.24 0.08 -0.44 0.08 c0.12 0.04 0.2 0.08 0.28 0.08 s0.12 -0.08 0.2 -0.12 z M4.92 33.8 l-0.36 0.12 c0.12 0 0.12 0.12 0.12 0.12 c0.04 -0.16 0.16 -0.12 0.24 -0.2 c0.04 0 0.04 0 0.04 -0.04 l-0.04 0 z M4.44 31.48 l-0.12 0.12 c0.04 0 0.04 0.04 0.08 0.04 c0.12 0.04 0.08 -0.12 0.2 -0.16 l-0.16 0 z M4.04 33.72 c0 0.08 0.08 0.04 0.12 0.08 c0 0 0.04 0 0.08 -0.04 c-0.08 -0.04 -0.12 -0.04 -0.16 -0.08 c0 0 -0.08 0 -0.04 0.04 z M4.24 35.24 c0.12 0 0.24 0 0.28 -0.16 c-0.12 0 -0.2 0.24 -0.32 0.04 c-0.04 0.04 0 0.12 0.04 0.12 z M4.32 35.64 c0.04 0.04 0.08 0 0.08 0 c0.12 -0.08 0.24 -0.16 0.44 -0.2 c-0.24 -0.04 -0.36 0.04 -0.44 0.12 c-0.04 0.04 -0.08 0.04 -0.08 0.08 z M4.52 38.36 l0.12 0 c0.12 0.04 0.2 -0.04 0.28 -0.12 c-0.08 -0.04 -0.16 0.04 -0.24 0.04 l-0.12 0 c-0.08 0 -0.2 -0.04 -0.2 0.04 s0.12 0.04 0.16 0.04 z M4.64 38.6 c0.04 0.04 0.04 0.08 0.08 0.08 c0 0 0.04 -0.04 0.08 -0.04 c-0.04 -0.04 -0.08 -0.04 -0.12 -0.08 c0 0.04 -0.04 0.04 -0.04 0.04 z M5.4 39.24 c0.04 0 0.08 -0.04 0.08 -0.04 l-0.04 -0.04 l-0.72 0.24 c0 0.04 -0.04 0.04 0 0.08 l0.04 0 c0.16 -0.04 0.28 -0.2 0.52 -0.2 c0.04 0 0.08 0 0.12 -0.04 z M5.28 37.16 c0.08 0.04 0.16 -0.04 0.24 -0.12 c-0.08 0.04 -0.16 0.04 -0.2 0.08 c-0.08 0 -0.08 0 -0.04 0.04 z M5.72 38.64 c0.04 -0.08 -0.08 -0.08 -0.08 -0.12 c-0.04 0 -0.04 -0.04 -0.04 -0.04 c0 -0.04 0.04 -0.08 0.04 -0.08 l-0.04 0 l0 -0.04 l0 0.04 c-0.04 0 -0.04 0 0 0 l0 0 l0 0 c-0.08 0.2 0.08 0.16 0.08 0.24 l0.04 0 z M5.8 35.44 c0.04 0 0.04 0.08 0.04 0.08 c0.08 0 0.04 -0.04 0.04 -0.04 c-0.04 -0.08 -0.08 -0.08 -0.12 -0.08 c-0.04 0.04 -0.08 0.04 -0.2 0.12 c0.16 -0.04 0.2 -0.04 0.24 -0.08 z M6.08 38.8 c-0.04 -0.08 -0.28 -0.08 -0.24 0 s0.16 0.12 0.28 0.12 c-0.04 -0.04 -0.04 -0.08 -0.04 -0.12 z M6.08 32.88 c0.2 0.04 0.16 -0.12 0.08 -0.16 c-0.08 -0.08 -0.16 0 -0.2 0.08 c0.04 0.04 0.08 0.08 0.12 0.08 z M6.36 33.76 c0.04 0 0.08 0 0.04 -0.04 c0 -0.04 0.04 -0.08 -0.04 -0.08 c-0.04 0.04 -0.04 0.08 -0.08 0.12 l0.08 0 z M6.44 28.04 c0.04 0 0.12 0 0.2 -0.04 c-0.04 -0.04 -0.2 0 -0.12 -0.12 c-0.12 0 -0.04 0.12 -0.08 0.16 z M6.64 33.08 c0.08 -0.04 0.12 -0.04 0.12 -0.12 c0 0 -0.04 -0.04 -0.08 -0.04 c0 0.04 0 0.08 -0.04 0.16 z M7.04 32.2 c0.04 -0.04 0.04 -0.04 0.08 -0.04 c-0.04 -0.04 -0.08 -0.08 -0.12 -0.08 s-0.04 0 -0.08 0.04 c0.04 0 0.08 0.04 0.12 0.08 z M7.44 27.04 c0.04 0.04 0.04 0.04 0.08 0.04 s0.04 0 0.08 -0.04 c0 -0.04 -0.04 -0.04 -0.04 -0.08 c-0.08 0.04 -0.08 0.08 -0.12 0.08 z M7.6 30.36 c0.04 -0.12 0.04 -0.16 0.04 -0.2 l-0.04 0 l0 0.2 z M7.56 27.439999999999998 c0.08 0 0.12 -0.04 0.24 -0.08 c-0.08 -0.04 -0.12 -0.04 -0.2 -0.08 c-0.08 0 -0.08 0.08 -0.08 0.12 s0.04 0.08 0.04 0.04 z M8.04 27.560000000000002 c0.04 0.04 0.04 0 0.04 -0.04 c0 -0.08 -0.08 -0.08 -0.16 -0.08 l-0.04 0.04 c0 0.08 0.08 0.08 0.16 0.08 z M8.12 25.119999999999997 c0 -0.12 -0.12 -0.08 -0.2 -0.08 c-0.04 0 -0.12 -0.04 -0.12 0.08 c0 0.08 0.08 0.16 0.16 0.16 c0.04 0 0.12 -0.08 0.16 -0.16 z M7.96 23.6 c0.08 0 0.16 0 0.16 -0.08 s-0.08 -0.12 -0.16 -0.16 c-0.08 0 -0.12 0.04 -0.12 0.12 c0 0.04 0.04 0.12 0.12 0.12 z M8.12 17.52 c0 0.04 0.04 0.04 0.04 0.08 c0.04 -0.08 0.12 -0.12 0.16 -0.16 c0 -0.04 -0.04 -0.04 -0.04 -0.04 c-0.08 0 -0.12 0.08 -0.16 0.12 z M8.32 18.96 l-0.04 -0.04 c0 0.04 -0.04 0.08 -0.08 0.08 c0 0.04 0.04 0.04 0.04 0.12 c0.04 -0.08 0.08 -0.12 0.08 -0.16 z M8.24 23.44 l0.08 -0.08 c0.04 -0.04 0 -0.04 0 -0.08 l-0.12 0.12 c0.04 0 0.04 0.04 0.04 0.04 z M8.52 25.560000000000002 c0 0.04 0.04 0.08 0.04 0.08 c0.04 0 0.04 -0.04 0.08 -0.08 c-0.04 0 -0.04 -0.04 -0.08 -0.04 z M8.8 26.36 l0 -0.04 c-0.16 0 -0.16 0.12 -0.24 0.16 c0.12 0.04 0.16 -0.08 0.24 -0.12 z M8.92 26.119999999999997 c0.04 0 0.08 -0.04 0.12 -0.08 c-0.04 0 -0.08 -0.04 -0.08 -0.04 c-0.04 0.04 -0.08 0.04 -0.08 0.08 z M9.04 25.64 l0 -0.08 c-0.08 0.04 -0.12 0.04 -0.24 0.08 c0.12 0.04 0.16 0.04 0.24 0 z M9.08 23.96 l0 0.04 c0.12 0 0.04 -0.08 0.12 -0.12 c-0.08 0 -0.12 0.04 -0.12 0.08 z M9.28 24.2 c0 -0.04 -0.04 -0.08 -0.04 -0.12 c-0.08 0.08 -0.08 0.12 -0.12 0.12 c0 0.04 0.08 0.04 0.08 0.04 c0.04 0 0.08 -0.04 0.08 -0.04 z M9.44 25.759999999999998 c0.08 -0.04 0.12 -0.08 0.16 -0.12 c-0.04 0 -0.08 -0.04 -0.08 -0.04 l-0.12 0.12 z M9.36 25.119999999999997 c0.12 0 0.24 -0.04 0.36 -0.08 l0 -0.04 c-0.12 0.04 -0.24 0.08 -0.36 0.08 l0 0.04 z M9.68 23.28 c0.04 0 0.08 -0.04 0.12 -0.04 c-0.04 0 -0.04 -0.04 -0.08 -0.04 c-0.16 0 -0.32 0.04 -0.48 0.16 l0.28 0 l0 0 l0 0 c0 0.04 0 0.12 0.08 0.12 c0.04 0 0.08 -0.08 0.08 -0.08 c-0.04 -0.08 -0.12 0 -0.16 -0.04 l0 0 l0 0 l0 0 l0 0 c0.04 -0.08 0.12 -0.08 0.16 -0.08 z M9.96 24.759999999999998 l0.04 -0.04 c0 -0.04 -0.04 -0.08 -0.08 -0.12 c0 0 0 0.04 -0.04 0.04 c0.04 0.04 0 0.12 0.08 0.12 z M10.28 23.44 c0.04 0 0.08 -0.04 0 -0.04 c-0.08 -0.04 -0.2 -0.04 -0.24 0.08 c0.08 0 0.16 -0.04 0.24 -0.04 z M10.28 23.2 c0 0 0.08 0 0.08 -0.08 c-0.04 -0.04 -0.08 -0.16 -0.12 -0.16 c-0.12 0 -0.08 0.08 -0.04 0.16 c-0.04 0.08 0 0.08 0.08 0.08 z M10.4 22.68 l0 -0.08 c-0.08 0 -0.2 -0.04 -0.2 0 c-0.12 0.16 -0.32 0.12 -0.44 0.2 c-0.08 0.04 -0.12 0.08 -0.2 0.16 l0.04 0.04 c0.12 -0.04 0.32 -0.04 0.44 -0.08 c0.04 -0.04 0.04 -0.12 0.12 0 z M10.56 23.08 c0.04 0 0.08 0.04 0.08 -0.04 s-0.04 -0.08 -0.12 -0.08 c-0.04 0 -0.08 0 -0.08 0.04 c0 0.12 0.08 0 0.12 0.08 z M10.56 22.8 c0.12 -0.04 0.32 0 0.4 -0.2 c-0.16 0.08 -0.28 0.16 -0.4 0.2 z M11.32 20.24 c0 0.04 0.08 0.04 0.16 0.04 c-0.04 -0.04 -0.08 -0.08 -0.08 -0.12 c-0.04 0 -0.12 0 -0.08 0.08 z M11.72 19.76 c0.04 0 0.16 0 0.12 -0.08 c0 -0.08 -0.08 0.04 -0.12 0 s-0.04 0 -0.08 0.04 c0 0.04 0.04 0.04 0.08 0.04 z M13.28 16.68 l-0.08 0.08 c0 0.04 0.04 0.04 0.04 0.04 c0.04 0 0.04 -0.04 0.08 -0.08 c-0.04 0 -0.04 -0.04 -0.04 -0.04 z M13.28 17.4 c-0.04 0.04 -0.08 0.08 -0.12 0.08 c0.04 0.04 0.04 0.04 0.08 0.04 c0.04 0.04 0.08 0 0.08 -0.04 c-0.04 -0.04 -0.04 -0.04 -0.04 -0.08 z M12.92 17.2 c0.04 -0.04 0.12 -0.04 0.2 -0.08 l-0.12 0 c-0.08 -0.04 -0.12 0 -0.08 0.08 z M13.32 18.24 c0.04 0 0.04 -0.04 0.04 -0.04 c-0.12 -0.12 -0.12 0.04 -0.2 0.04 c0.04 0 0.08 0.08 0.16 0 z M13.28 17.84 c0.04 0 0.08 -0.04 0.12 -0.04 c-0.04 -0.04 -0.04 -0.08 -0.08 -0.08 l-0.08 0.08 z M13.48 16.84 c0.04 -0.04 0.12 -0.08 0.16 -0.12 c0.04 0 0.12 -0.08 0.08 -0.08 c-0.08 0 -0.2 0.08 -0.28 0.16 z M13.56 17.4 c0.08 -0.04 0.12 -0.08 0.2 -0.12 c-0.04 0 -0.04 -0.04 -0.04 -0.04 c-0.08 0 -0.12 0.08 -0.16 0.16 z M13.96 16.8 c0 0 0.04 -0.04 0.04 -0.08 c0 -0.12 -0.12 0.08 -0.16 -0.04 c-0.08 0.08 -0.12 0.12 -0.2 0.16 c0.12 0.16 0.16 -0.08 0.32 -0.04 z M38.275 38.36 c0 -0.04 0.04 -0.08 0.08 -0.12 l0 0 l-0.56 1.96 l0 0 c-0.12 -0.04 -0.2 0.04 -0.32 0.12 c0.12 0.04 0.24 0 0.32 -0.08 l-0.48 1.88 l-0.04 0 s-0.08 0.04 -0.12 0.04 c0 0.04 0.04 0.04 0.04 0.08 c0.04 0 0.04 -0.04 0.08 -0.04 l-0.08 0.28 c-0.24 -0.08 -0.56 -0.16 -0.88 -0.24 c0 0 0.04 0 0.04 -0.04 l-0.08 0 l-0.08 0 s-0.08 0 -0.16 -0.04 l0 0 l-0.04 0 c-0.4 -0.08 -0.84 -0.16 -1.32 -0.24 c0.08 -0.04 0.16 -0.04 0.24 -0.08 c-0.04 -0.08 -0.12 0.04 -0.16 -0.04 c-0.04 0.04 -0.12 0.04 -0.16 0.08 l0.04 0.04 c-0.48 -0.08 -0.96 -0.16 -1.48 -0.24 l0 -0.04 s0 -0.08 -0.04 -0.08 c-0.04 0.04 -0.08 0.08 -0.12 0.08 c-0.16 0 -0.36 -0.04 -0.56 -0.08 l-0.04 0 l-0.08 0 c-1.04 -0.16 -2.16 -0.28 -3.32 -0.4 c0.04 0 0.04 0 0.08 -0.04 c-0.08 0.04 -0.12 0.04 -0.16 0.04 c-3 -0.28 -6.2 -0.52 -8.64 -0.68 l0 -0.04 l-0.08 -0.08 c-0.04 0 -0.04 0.04 -0.08 0.04 c0.08 0.04 0.12 0.04 0.16 0.08 c-2.52 -0.16 -4.28 -0.24 -4.28 -0.24 c0.6 -1.84 1.08 -3.68 1.44 -5.56 c0.32 -1.88 0.56 -3.8 0.6 -5.68 c0.12 -3.8 -0.16 -8.64 -1.36 -12.2 l1.44 0.12 c-0.04 0.04 -0.08 0.08 -0.12 0.04 c-0.04 0 -0.08 -0.04 -0.08 0 c-0.04 0.04 0 0.08 0.04 0.12 l0.16 0 c0 -0.04 0.08 -0.08 0.08 -0.16 l2.6 0.24 c0.32 0.08 5.16 0.16 7.36 -0.72 l0.04 2.44 c-0.04 -0.04 -0.12 -0.04 -0.16 -0.04 s-0.12 -0.04 -0.08 -0.08 c-0.04 0 -0.08 -0.16 -0.2 -0.08 c-0.04 0.04 0.08 0.08 0 0.12 c-0.24 0.04 -0.28 0.24 -0.28 0.36 c0.04 0.2 0.24 0.28 0.4 0.28 s0.24 -0.08 0.32 -0.2 l0 2.44 c-2.2 -0.88 -4.48 -1.12 -6.68 -0.76 c-0.04 0.96 -0.04 1.88 -0.08 2.84 c-0.16 0.04 -0.32 0.16 -0.52 0.2 c-0.04 0 -0.08 0 -0.12 0.04 c-0.08 0.12 0.04 0.04 0.08 0.08 c0.16 -0.08 0.36 -0.16 0.56 -0.2 c0 1.28 -0.04 2.6 -0.08 3.88 l0 0.36 c-0.04 0 -0.04 0.04 -0.04 0.04 l0 0.04 c0 0 0 -0.04 0.04 -0.04 c-0.04 0.08 -0.04 0.12 -0.04 0.16 c1.24 0.12 2.44 -0.16 3.64 -0.76 l0.12 3.92 c-1.28 -0.6 -2.56 -0.76 -3.8 -0.56 c-0.08 2.08 -0.12 4.12 -0.16 6.2 l0 0.08 l0 0.48 c0.24 0.04 1.4 0.24 3.12 0.4 l0.04 0.04 l0 -0.04 c3.68 0.44 9.76 0.92 13.8 0.2 l0 0 c0.08 0.04 0.12 0.08 0.2 0.08 z M22.115 29.84 c-0.12 0.04 -0.2 0.12 -0.32 0.16 l0 0.04 c0.12 -0.08 0.24 -0.12 0.32 -0.16 l0 -0.04 z M27.955 18.76 l0 0 l0 0 z M25.275 19.44 c0.04 -0.04 0.08 -0.04 0.12 -0.08 l-0.08 -0.08 c-0.08 0 -0.08 0.08 -0.08 0.12 z M25.875 20.8 c0.04 0 0.08 0 0.08 -0.08 c-0.04 -0.04 0 -0.12 -0.08 -0.12 s-0.08 0.08 0 0.2 l0 0 l-0.04 0 l0 0 l0.04 0 l0 0 z M26.314999999999998 20.52 c0.04 -0.04 0.08 -0.08 0.08 -0.12 c0 0 -0.04 -0.04 -0.08 -0.04 c0 0.04 -0.04 0.04 -0.04 0.08 s0.04 0.04 0.04 0.08 z M26.634999999999998 17.6 c-0.08 -0.04 -0.12 0 -0.2 0.04 c0.08 0 0.12 0.12 0.2 0.04 l0 -0.08 z M26.235 17.6 c-0.04 0.04 0 0.08 0 0.08 c0.08 0 0.12 0 0.16 -0.12 c-0.08 0.04 -0.12 -0.04 -0.16 0.04 z M25.555 17.08 c-0.04 0 -0.04 0.04 0 0.08 c0.16 0.04 0.24 -0.12 0.44 -0.2 c-0.24 0 -0.28 0.16 -0.44 0.12 z M25.075 17.92 c0 0.04 0.04 0.08 0.08 0.08 c0.12 -0.08 0.36 -0.04 0.4 -0.24 c0 -0.08 -0.12 -0.12 -0.24 -0.12 c-0.04 0.08 -0.2 0.12 -0.24 0.28 z M24.395 19.28 c-0.08 0.04 -0.16 0.04 -0.24 0.08 c0.12 0.04 0.16 0.04 0.24 -0.08 z M23.875 19.6 l0.04 0.04 c0.08 -0.04 0.2 -0.08 0.28 -0.16 l-0.04 0 c-0.12 0.04 -0.24 0 -0.28 0.12 z M23.634999999999998 19.24 l-0.12 0.12 l0 0 c0.08 0 0.12 -0.04 0.2 -0.08 c-0.04 -0.04 -0.08 -0.04 -0.08 -0.04 z M23.314999999999998 18.04 c-0.12 0.04 -0.2 0.08 -0.32 0.12 c0.12 0.04 0.2 0.04 0.28 0 c0 -0.04 0.04 -0.08 0.08 -0.08 z M17.154999999999998 36.28 c0.04 0 0.08 -0.04 0.08 -0.08 s0 -0.08 -0.04 -0.08 c-0.04 0.04 -0.04 0.08 -0.08 0.12 z M20.314999999999998 36.4 c0.04 0 0.12 0 0.12 -0.08 c-0.04 -0.08 -0.04 -0.16 -0.12 -0.16 c-0.04 0 -0.12 0.08 -0.08 0.08 c0 0.08 0.04 0.12 0.08 0.16 z M20.115 34.4 c0.12 0 0.2 -0.08 0.28 -0.24 c-0.12 0.12 -0.2 0.16 -0.28 0.24 z M20.435 17.24 c-0.24 -0.04 -0.32 0.12 -0.52 0.28 c0.24 -0.12 0.4 -0.12 0.52 -0.28 z M19.755 17.76 c-0.04 0 -0.08 0 -0.04 0.04 l0.04 0.04 c0.04 0 0.04 -0.04 0.08 -0.08 l-0.08 0 z M16.994999999999997 17.24 c0.12 0 0.16 -0.12 0.24 -0.2 c0 0 -0.04 -0.04 -0.04 0 c-0.08 0.08 -0.32 0 -0.36 0.16 c0 0.12 0.12 0 0.16 0.04 z M17.474999999999998 18.52 c0 -0.04 0.04 -0.08 0.04 -0.12 s-0.04 -0.04 -0.08 -0.08 l-0.04 0.08 c0 0.04 0.04 0.08 0.08 0.12 z M17.715 18.08 l0.04 -0.04 c0 -0.04 -0.04 -0.04 -0.04 -0.12 c-0.04 0.08 -0.08 0.08 -0.08 0.12 c0.04 0 0.04 0.04 0.08 0.04 z M18.235 18.92 l0 -0.12 l0 0 c-0.04 0.04 -0.08 0.08 -0.08 0.12 c-0.04 0.08 -0.04 0.2 -0.2 0.12 c0 0.08 0.08 0.2 0 0.16 c-0.16 0 -0.12 0.16 -0.2 0.2 c-0.04 0.04 -0.04 0.08 -0.04 0.12 c0.04 0 0.08 0 0.12 -0.04 c0.16 -0.16 0.36 -0.28 0.4 -0.56 z M18.675 36.24 c0 0 0.12 0.08 0.12 -0.08 c-0.08 0.04 -0.12 0.08 -0.12 0.08 z M18.794999999999998 25 c0 0 0.04 0 0.04 0.04 c0.04 -0.04 0.12 -0.04 0.16 -0.08 l0 -0.04 c-0.04 0.04 -0.12 0.04 -0.2 0.08 z M18.875 28.32 c0.04 0 0.08 -0.04 0.12 -0.08 c-0.04 -0.04 -0.08 -0.04 -0.08 -0.04 c-0.04 0 -0.04 0.04 -0.08 0.08 z M19.155 32.44 c0.04 0 0.16 -0.08 0.16 -0.08 c-0.04 -0.12 -0.08 0.04 -0.08 0.04 c-0.12 -0.08 -0.12 -0.04 -0.12 0 s0.04 0.04 0.04 0.04 z M19.994999999999997 23.84 c-0.16 -0.04 -0.24 -0.04 -0.36 0.04 c0.12 0 0.2 -0.04 0.36 -0.04 z M20.355 31.880000000000003 c-0.16 0.08 -0.28 0.16 -0.44 0.24 c0.2 0 0.32 -0.12 0.44 -0.24 z M20.115 36.2 c0.04 -0.04 0.08 -0.04 0.08 -0.08 c-0.04 -0.04 -0.08 -0.04 -0.16 -0.04 c-0.04 0 -0.12 -0.04 -0.08 0.12 c-0.04 0.2 0.12 -0.12 0.16 0 z M20.515 38.56 c0 0.04 0.04 0 0.04 -0.04 c0 -0.08 0 -0.12 -0.04 -0.12 c-0.12 -0.04 -0.16 0.04 -0.32 0.2 c0.2 -0.08 0.28 -0.2 0.32 -0.04 z M20.595 38.36 c0.04 -0.04 0.08 -0.12 0.04 -0.2 c-0.04 0.08 -0.08 0.12 -0.24 0.16 c0.12 0.04 0.2 0.04 0.2 0.04 z M20.595 31.759999999999998 c0.04 0 0.04 -0.04 0.08 -0.08 l-0.04 -0.04 c-0.04 0 -0.08 0.04 -0.08 0.04 c0 0.04 0.04 0.04 0.04 0.08 z M20.955 31.48 c-0.04 0 -0.04 0 -0.08 0.04 c0.08 0 0.16 0.04 0.24 0.08 c0.04 0 0.04 -0.04 0.04 -0.04 c-0.04 -0.08 -0.12 -0.04 -0.2 -0.08 z M22.915 39.28 c0.12 0 0.08 -0.04 0.04 -0.08 c-0.08 -0.04 -0.12 -0.08 -0.2 -0.16 c0.08 0.16 -0.16 0.04 -0.16 0.2 c0.08 -0.04 0.12 -0.04 0.2 0 c0.04 0 0.08 0.04 0.12 0.04 z M23.314999999999998 39.28 c0.04 0 0.08 -0.04 0.12 -0.04 c-0.08 -0.08 -0.12 -0.12 -0.16 -0.12 c0 -0.04 -0.04 0 -0.08 0.04 z M24.354999999999997 39.84 c0.12 0 0.24 -0.04 0.28 -0.16 c-0.08 0.04 -0.16 0.08 -0.28 0.12 l0 0.04 z M27.795 39.32 c0.12 0 0.2 -0.04 0.28 -0.16 c-0.12 0 -0.24 0.24 -0.36 0 c0 0.08 0 0.16 0.08 0.16 z M27.875 39.72 c0.04 0.04 0.04 0 0.08 0 c0.12 -0.08 0.2 -0.16 0.4 -0.2 c-0.2 -0.04 -0.32 0.04 -0.44 0.12 c-0.04 0.04 -0.08 0.04 -0.04 0.08 z M28.395 40.76 c0.08 -0.04 0.16 -0.08 0.2 -0.12 l0 -0.04 c-0.16 0.04 -0.28 0.04 -0.48 0.08 c0.16 0.04 0.24 0.08 0.28 0.08 z M28.555 38.8 c0.04 0 0.12 -0.04 0.12 -0.12 l-0.04 0 c-0.04 0 -0.08 0.04 -0.12 0.08 c0 0.04 0 0.04 0.04 0.04 z M29.115 38.68 c-0.04 0 -0.04 0.04 0 0.04 c0.08 0.04 0.12 -0.08 0.24 -0.08 c-0.16 -0.08 -0.2 0.04 -0.24 0.04 z M29.034999999999997 39.92 c0.04 0 0.08 -0.04 0.12 -0.04 c-0.04 -0.04 -0.08 -0.12 -0.12 -0.12 c-0.08 0 -0.08 0.08 -0.08 0.12 c-0.04 0.08 0.04 0.08 0.08 0.04 z M29.395 39.6 c0.04 0 0.04 -0.04 0 -0.08 c0 -0.04 -0.04 -0.04 -0.12 -0.04 c-0.04 0 -0.08 0.04 -0.2 0.08 c0.16 0 0.2 -0.04 0.28 -0.04 c0 0 0 0.08 0.04 0.08 z M29.994999999999997 40.6 c0.08 0 0.16 -0.04 0.28 -0.08 c-0.08 -0.04 -0.12 -0.04 -0.12 -0.04 c-0.08 0.04 -0.12 0.08 -0.2 0.12 l0.04 0 z M30.915 38.92 c0.04 -0.04 0.08 -0.08 0.08 -0.12 s-0.08 -0.04 -0.08 -0.04 c-0.04 0 -0.04 0.04 -0.04 0.04 c0 0.04 0 0.04 0.04 0.12 z M31.314999999999998 39.6 l0.08 0 s0.12 0 0.16 -0.08 c0 0 -0.04 -0.04 -0.08 -0.04 c-0.04 0.04 -0.16 0 -0.16 0.12 z M31.555 39.96 c0.04 0 0.04 -0.04 0.08 -0.08 c-0.04 0 -0.04 0 -0.08 -0.04 c-0.04 0.04 -0.04 0.04 -0.04 0.08 z M31.875 41.16 c0.08 -0.04 0.16 -0.08 0.2 -0.12 c-0.08 0 -0.16 0 -0.2 0.12 z M32.475 38.96 l0.08 0 c-0.04 -0.04 -0.08 -0.08 -0.12 -0.08 c0 -0.04 -0.04 0 -0.04 0.04 c-0.04 0.04 0.04 0.04 0.08 0.04 z M37.115 39.44 c-0.08 -0.04 -0.16 -0.04 -0.2 0.04 c0.08 0.04 0.12 0.04 0.2 -0.04 z M36.394999999999996 38.8 c-0.04 0 -0.04 0.04 -0.08 0.04 c0.04 0.04 0.08 0.08 0.12 0.08 s0.04 0 0.08 -0.04 c-0.04 0 -0.08 -0.04 -0.12 -0.08 z M36.195 39 c0 0.04 0.04 0.04 0.08 0.08 c0 -0.04 0.04 -0.08 0.04 -0.12 c0.04 0 0 -0.04 -0.04 -0.08 c-0.04 0.08 -0.04 0.08 -0.08 0.12 z M36.195 39.24 c-0.04 0 -0.08 0.04 -0.08 0.04 c0.04 0 0.04 0.04 0.08 0.04 s0.04 0 0.08 -0.04 c-0.04 0 -0.08 -0.04 -0.08 -0.04 z M33.315 41.56 c0.16 0.12 0.16 -0.12 0.32 -0.08 c-0.16 -0.16 -0.24 -0.04 -0.32 0 l0 0.08 z M33.714999999999996 40.24 c-0.04 0.04 0 0 0 -0.04 s-0.08 -0.08 -0.12 -0.08 c-0.04 0.08 0.12 0.12 0.12 0.12 z M34.275 41.24 l0.08 -0.08 c0 0 -0.04 -0.04 -0.08 -0.04 c0 0.04 -0.04 0.04 -0.04 0.08 z M34.355 40.36 c0 0.04 0.04 0.04 0.04 0.08 c0.08 -0.04 0.12 -0.04 0.2 -0.08 c-0.08 0 -0.12 -0.04 -0.2 -0.04 z M34.475 41.44 c0.04 0 0.12 -0.04 0.2 -0.04 c-0.08 -0.04 -0.08 -0.08 -0.12 -0.04 c-0.04 0 -0.08 0 -0.12 0.04 z M34.755 41.04 c0.04 0 0.04 -0.04 0.12 -0.08 l-0.12 0 l-0.04 0 c0 0.04 0.04 0.08 0.04 0.08 z M34.875 39.8 c0.08 -0.12 0.16 -0.2 0.24 -0.28 l-0.04 -0.04 c-0.12 0.04 -0.16 0.16 -0.24 0.24 c0 0 0.04 0.04 0.04 0.08 z M36.074999999999996 41.48 c-0.04 0 -0.12 0.08 0 0.12 l0 -0.12 z M35.875 41.32 l0.48 -0.12 c-0.04 -0.12 -0.12 0 -0.16 -0.04 c-0.16 -0.04 -0.24 0.04 -0.36 0.12 z M36.315 40.92 l0.12 -0.12 c-0.08 -0.04 -0.12 0 -0.16 0.04 c0 0.04 0.04 0.08 0.04 0.08 z M36.394999999999996 41.92 c0.04 -0.04 0.12 -0.04 0.16 -0.08 l0 -0.04 c-0.08 0.04 -0.12 0.04 -0.16 0.08 l0 0.04 z M36.595 39.2 c0 0.04 0.04 0.04 0.08 0.08 c0.04 -0.04 0.04 -0.04 0.04 -0.08 c-0.04 0 -0.08 0 -0.08 -0.04 c-0.04 0 -0.04 0.04 -0.04 0.04 z M37.035 40.56 c-0.16 0 -0.24 0.04 -0.32 0.16 c0.16 0.04 0.24 -0.08 0.32 -0.12 l0 -0.04 z M36.755 41.36 c0.04 -0.04 0.08 -0.08 0.08 -0.12 l-0.04 -0.04 c-0.04 0.04 -0.08 0.08 -0.08 0.12 z M36.955 42.4 c0.04 -0.04 0.12 -0.12 0.16 -0.2 c-0.04 0 -0.04 -0.04 -0.08 -0.04 c-0.08 0.04 -0.08 0.16 -0.12 0.2 z M37.155 40.92 l0.08 0 c0.04 -0.04 0.12 -0.08 0.2 -0.08 l0 -0.04 c-0.08 0 -0.12 0 -0.2 -0.04 c-0.04 0 -0.04 0.04 -0.08 0.04 l0 0 l0 0 c0 -0.04 0 -0.08 0.04 -0.08 l-0.16 0 l0 0.04 c0.04 0 0.08 0 0.12 0.04 l0 0 l0 0 c0.08 0.04 0 0.04 -0.04 0.08 l-0.08 0 c-0.08 0.04 -0.08 0.04 0 0.08 c0.04 0.04 0.08 0 0.12 -0.04 z M37.235 41.12 c0 0.08 0.04 0.12 0.08 0.12 c0.08 0 0.08 -0.04 0.08 -0.12 c0 -0.04 -0.04 -0.04 -0.08 -0.04 s-0.08 0 -0.08 0.04 z M37.275 41.44 c0.04 -0.04 0.12 -0.04 0.16 -0.08 c-0.08 -0.04 -0.12 0 -0.16 0.04 l0 0.04 z M37.555 40.04 c0.08 -0.04 0.16 -0.12 0.24 -0.2 c0 0 0 -0.04 -0.04 -0.04 c-0.12 -0.04 -0.16 0.08 -0.24 0.12 c-0.16 0.04 -0.24 0.24 -0.44 0.24 c-0.04 -0.04 -0.12 0.04 -0.2 0.04 l0 0.04 c0.08 0 0.12 0.04 0.2 0 c0.04 0 0.12 0 0.16 -0.04 c0.2 0.08 0.2 -0.12 0.32 -0.16 z M37.955 39.48 c0.04 0 0.04 -0.04 0.04 -0.04 l-0.04 -0.04 c-0.08 0.12 -0.28 -0.04 -0.36 0.16 l-0.08 0 l0 -0.04 c0.08 -0.2 -0.04 -0.08 -0.12 -0.08 l0 0 l0 0 c0.08 0.04 0.08 0.16 0.08 0.28 c0.16 -0.12 0.28 -0.24 0.48 -0.24 z M38.795 35.84 c0.12 0.16 0.24 0.32 0.36 0.52 l0 0 l-1.08 0.48 l-0.08 0 c-0.04 0.04 -0.12 0.08 -0.16 0.04 c-0.04 0 -0.08 0.04 -0.08 0.08 l0.04 0 l-0.96 0.44 c-0.08 -0.04 -0.12 -0.08 -0.16 -0.12 c-0.04 0.04 -0.12 0 -0.08 0.08 c0.04 0.04 0.08 0.08 0.12 0.08 l-0.48 0.24 c-0.04 -0.16 -0.08 -0.32 -0.12 -0.44 c0.08 0 0.12 -0.04 0.16 -0.12 l-0.12 0 l0 -0.2 c-0.04 -0.04 -0.08 -0.04 -0.08 -0.04 c0 0.08 0.04 0.12 0.08 0.24 c-0.04 0 -0.04 0.04 -0.04 0.04 c-0.04 -0.12 -0.08 -0.28 -0.12 -0.4 l0.04 0 l0 -0.04 s-0.04 -0.04 -0.08 -0.04 c-0.04 -0.2 -0.12 -0.4 -0.2 -0.64 c0.04 0.04 0.12 -0.04 0.16 0 l0.04 -0.04 c-0.08 -0.04 -0.16 -0.16 -0.2 -0.16 c-0.16 0.04 0.12 0.12 0 0.2 c-0.16 -0.44 -0.32 -0.88 -0.52 -1.36 c0.08 0 0.16 -0.08 0.2 -0.04 l0.04 -0.04 c-0.04 -0.12 -0.12 -0.2 -0.24 -0.2 c-0.04 0 -0.08 0.04 -0.12 0.04 c-1.16 -2.76 -2.76 -5.6 -2.8 -5.56 c0.04 0.24 0.04 0.52 0.08 0.8 l-0.04 0 c0 0.04 0 0.04 0.04 0.04 c0 0.56 0.04 1.08 0.12 1.64 l-0.04 0 c-0.04 0 -0.08 0 -0.08 0.04 c-0.04 0 0 0.04 0.04 0.08 c0 0 0.04 0 0.08 -0.04 c0.04 0.48 0.08 0.92 0.12 1.4 c-0.04 0 -0.08 0.04 -0.12 0.08 c0.08 0.04 0.12 0.04 0.12 0 c0.08 0.68 0.2 1.36 0.28 2.04 c-0.08 -0.04 -0.12 0.08 -0.16 0.16 c0.08 -0.04 0.12 -0.04 0.2 -0.04 c0 0.24 0.04 0.48 0.08 0.72 l-4.28 0 c0.08 -0.56 0.16 -1.16 0.24 -1.76 l0.16 0 l0 0 l-0.16 0 c0.32 -2.24 0.48 -4.52 0.52 -6.76 c0.04 0 0.04 -0.04 0.04 -0.04 c0 -0.04 0 -0.08 -0.04 -0.12 c0.04 -2.6 -0.08 -5.24 -0.36 -7.88 l0 0 l0 0 c-0.12 -0.92 -0.24 -1.88 -0.4 -2.8 l1 0 l-0.08 0.08 c0.04 0 0.08 0.04 0.08 0.04 c0.04 0 0.08 -0.04 0.12 -0.08 l-0.04 -0.04 l2.6 0 c-0.04 0.04 -0.04 0.08 -0.08 0.08 c0.04 0.04 0.12 0.04 0.16 0.04 s0.08 -0.04 0.12 -0.08 c-0.04 0 -0.04 -0.04 -0.08 -0.04 l0.04 0 c1.16 0 2.28 0.16 3.24 0.72 c-0.12 0.08 -0.32 0 -0.32 0.24 c0.04 -0.08 0.08 0.08 0.12 0.04 c0.04 -0.16 0.16 -0.16 0.28 -0.2 l0 -0.04 c0.08 0.08 0.2 0.12 0.28 0.2 c-0.04 0 -0.12 -0.04 -0.16 0.04 c0 0.04 0.08 0.08 0.08 0.08 c0.08 -0.04 0.12 -0.04 0.16 -0.08 l0.28 0.28 c0.44 0.4 0.72 0.84 1 1.28 c0.84 1.56 1.04 3.44 0.52 5.12 l-0.04 0.04 l0.04 0 c-0.04 0.08 -0.04 0.12 -0.04 0.16 c-0.04 0 -0.04 0.04 -0.04 0.04 c-0.04 0.04 -0.04 0.04 0 0.04 l-0.12 0.24 c-0.24 0.68 -0.56 1.4 -0.96 1.96 c-0.04 0.04 -0.04 0.08 -0.08 0.08 l-0.08 0.04 c-0.04 0.04 -0.16 0.08 -0.32 0.12 l0 0 l0 0.04 c-0.56 0.2 -1.6 0.64 -1.6 0.72 c0.16 0.52 0.32 1.08 0.52 1.6 c-0.04 0 -0.08 0 -0.08 0.08 c0 0.04 0.04 0.04 0.08 0.04 l0.04 0 c0.16 0.44 0.32 0.88 0.52 1.36 c0 0 -0.04 0 -0.08 0.04 c0.04 0.04 0.08 0.08 0.12 0.08 l0 0 c0.16 0.32 0.32 0.64 0.44 0.96 c-0.12 0.04 -0.24 0.08 -0.4 0.16 c0.2 0.04 0.32 -0.04 0.44 -0.16 c0.2 0.48 0.44 0.92 0.68 1.36 c-0.04 0 -0.04 0.04 -0.04 0.08 c0 0 0.04 0.04 0.04 0 l0.04 0 c0.08 0.16 0.2 0.32 0.28 0.48 c0 0 -0.04 0 -0.04 0.04 c0 0 -0.04 0 -0.04 0.04 l0 0 l0.08 0 c0 -0.04 0 -0.04 0.04 -0.04 c0 0.04 0.04 0.08 0.04 0.12 c-0.04 0 -0.08 0.04 -0.08 0.12 l0 0 l0 0 c-0.12 -0.04 -0.16 0.12 -0.16 0.08 c-0.08 -0.16 -0.12 -0.04 -0.16 -0.04 c-0.08 0.04 0 0.08 -0.04 0.12 l0 0 l0 0 c-0.04 -0.04 -0.08 0 -0.12 0.04 c0.08 0.04 0.12 0.08 0.2 0.12 c0 0 0.04 -0.04 0.04 -0.08 l-0.04 -0.04 c-0.08 0.12 -0.04 0 -0.08 -0.04 l0 0 c0.16 0.04 0.24 -0.12 0.36 -0.08 l0 -0.08 l0 0 l0 0 c0.08 -0.04 0.12 0.16 0.2 0.08 c0.12 0.16 0.24 0.36 0.32 0.56 l0 0 l0.04 0 c0.08 0.16 0.16 0.28 0.28 0.44 c-0.12 -0.08 -0.2 -0.2 -0.36 -0.12 c0.16 -0.04 0.2 0.24 0.36 0.16 c0.08 0.08 0.12 0.16 0.16 0.24 l-0.12 0 c-0.12 0 -0.24 0.04 -0.32 0.12 c-0.04 0 0.08 0 0.12 0.04 c0.08 0.04 0.16 -0.12 0.24 -0.04 c-0.08 0.08 -0.2 0.12 -0.28 0.16 s-0.2 0.12 -0.28 -0.04 c-0.04 -0.08 -0.08 -0.04 -0.12 -0.04 c0 0.04 -0.08 0.12 -0.08 0.12 c0.08 0.08 0.16 0.16 0.24 0.2 c0.28 0.16 0.36 -0.28 0.64 -0.2 l0 -0.04 c-0.04 -0.08 0 -0.12 0.04 -0.16 c0.08 0.12 0.16 0.2 0.24 0.32 l-0.48 0.24 c0.12 -0.04 0.16 0.16 0.28 0.04 c-0.04 0 -0.04 0 -0.08 -0.04 c0.08 -0.08 0.16 -0.16 0.28 -0.12 z M36.315 26.48 c0.08 0 0.2 0 0.2 -0.08 s-0.12 -0.08 -0.2 -0.08 c-0.08 -0.04 -0.08 0.04 -0.04 0.08 c-0.04 0.04 -0.04 0.08 0.04 0.08 z M36.435 24.439999999999998 c0.12 -0.08 0.2 -0.16 0.24 -0.24 c0 0 -0.04 -0.04 -0.08 -0.04 c-0.04 0.08 -0.16 0.12 -0.16 0.28 z M37.195 21.92 c0 -0.04 -0.04 -0.08 -0.08 -0.04 c-0.04 0 -0.08 0 -0.08 0.08 c0.04 0.04 0 0.12 0.04 0.08 c0.04 0 0.08 -0.08 0.12 -0.12 z M37.074999999999996 21.48 c0.12 -0.08 0.16 -0.08 0.2 -0.12 l-0.04 -0.04 c-0.04 0 -0.08 0.04 -0.16 0.16 z M37.435 22.32 c0.04 -0.04 0 -0.04 0 -0.04 c0 -0.08 -0.08 -0.16 -0.12 -0.12 c-0.08 0.04 0.08 0.08 0.12 0.12 l0 0.04 l0 0 l0 0 l0 0 z M37.635 24.439999999999998 c0 -0.12 0 -0.24 -0.12 -0.12 c-0.04 0 0 0.12 0 0.16 l0 0 l0 0 c0 -0.04 0.12 0 0.12 -0.04 z M37.714999999999996 24.48 l0.12 -0.12 c-0.04 0 -0.04 -0.04 -0.04 -0.04 l-0.12 0.12 c0 0 0 0.04 0.04 0.04 z M37.875 23.96 c0.04 -0.04 0.16 0 0.2 -0.08 l-0.2 0 c-0.08 0 -0.04 0.08 0 0.08 z M37.995 22.72 c-0.12 0 0.04 0.08 -0.04 0.12 l0.04 0 s0.04 -0.04 0.04 -0.08 z M37.915 22.16 c0.04 0 0.08 -0.04 0.12 -0.04 l-0.04 -0.04 c-0.12 -0.08 -0.08 0.04 -0.08 0.08 l0 0.04 l0 -0.04 z M38.115 21.16 c-0.12 0.16 -0.36 0.04 -0.36 0.2 c-0.04 0.04 0.12 0 0.2 0 c0.08 -0.04 0 0.08 0 0.08 c0.08 -0.08 0.12 -0.16 0.16 -0.28 z M37.635 20.84 c0.04 -0.04 0.08 -0.08 0.2 -0.16 c-0.16 0.04 -0.2 0.04 -0.24 0.12 c0 0 0 0.04 0.04 0.04 z M37.755 20.48 c0 0 0 -0.12 -0.08 -0.04 c-0.04 0 -0.08 0.04 -0.08 0.08 c0.08 0.08 0.16 -0.04 0.16 -0.04 z M37.635 20 c-0.08 0 -0.12 0 -0.08 0.08 l0.04 0.04 c0.04 0 0.04 -0.04 0.08 -0.08 z M37.555 20.8 c-0.04 -0.12 -0.16 0.08 -0.2 -0.04 c-0.04 0.04 -0.12 0.12 -0.2 0.16 c0.16 0.16 0.2 -0.08 0.32 -0.04 c0 -0.04 0.08 -0.04 0.08 -0.08 z M37.435 19.88 c-0.08 0 -0.12 0.04 -0.28 0.08 c0.16 -0.04 0.24 0 0.28 -0.08 z M37.235 20.72 c-0.08 0 -0.16 0.08 -0.24 0.16 l0 0 c0.08 0 0.12 -0.04 0.2 -0.08 c0.04 0 0.08 -0.08 0.04 -0.08 z M36.995 22.4 l-0.04 -0.04 c-0.04 0.04 -0.12 0.04 -0.12 0.16 c0 0.04 0 0.04 0.04 0.04 c0.12 0 0.08 -0.08 0.12 -0.16 z M36.795 18.4 l-0.04 0.04 l0.16 0 l0 -0.04 l-0.12 0 z M36.915 21.84 c-0.04 -0.04 -0.04 -0.04 -0.04 -0.08 c-0.04 0.04 -0.08 0.08 -0.08 0.12 l0.04 0.04 c0.04 0 0.08 -0.04 0.08 -0.08 z M36.795 20.76 l-0.08 0.08 c0.04 0 0.04 0.04 0.04 0.04 c0.04 -0.04 0.08 -0.04 0.12 -0.08 c-0.04 -0.04 -0.08 -0.04 -0.08 -0.04 z M36.795 21.44 c-0.04 0.08 -0.08 0.08 -0.08 0.12 c0 0 0.04 0.04 0.08 0.04 c0 0 0.04 0 0.04 -0.04 s0 -0.04 -0.04 -0.12 z M36.875 22.24 c-0.08 -0.08 -0.12 0.08 -0.2 0.04 c0.08 0.04 0.12 0.12 0.2 0.04 l0 -0.08 z M36.515 21.16 c-0.04 0 -0.08 0.04 -0.08 0.12 c0.08 -0.04 0.12 -0.04 0.2 -0.08 c-0.04 0 -0.08 0 -0.12 -0.04 z M36.435 23.44 l-0.04 0.04 c0 0.04 0.04 0.04 0.08 0.04 c0.16 -0.08 0.36 -0.08 0.44 -0.32 c-0.2 0 -0.32 0.2 -0.48 0.24 z M36.435 23.6 c-0.08 0.04 -0.16 0.08 -0.2 0.12 l0 0.04 c0.08 -0.04 0.16 -0.08 0.2 -0.16 l0 0 z M37.714999999999996 34.88 c0 0 -0.12 0.04 -0.2 0.08 l0.12 0 c0.04 0.04 0.12 0.04 0.08 -0.08 z M37.515 34.96 l0 0 c0.08 -0.08 0 -0.08 -0.04 -0.16 c-0.04 0.04 -0.08 0.04 -0.12 0.08 c-0.04 0.08 0.16 0 0.12 0.12 l0.04 -0.04 l0 0 z M37.595 35.16 c-0.04 0 -0.12 0 -0.24 0.04 c0.12 0.04 0.16 0.08 0.24 0 l0 -0.04 z M37.635 34.32 c0 0.12 -0.08 0.12 -0.16 0.12 c-0.2 -0.04 0 0.16 -0.12 0.16 c0.04 0 0.04 0.04 0.04 0.04 c0.08 0 0.12 -0.16 0.24 -0.12 l0 -0.2 z M37.635 34.12 c-0.08 0.04 -0.2 -0.04 -0.28 0.08 l0.12 0 l0 0 l0 0 c0 0.04 -0.12 0.08 -0.04 0.12 c0 0.04 0.08 0 0.12 0 c0.04 -0.08 -0.04 -0.12 -0.08 -0.12 l0 0 c0.04 -0.04 0.12 -0.04 0.16 -0.08 z M37.755 35.36 c-0.28 0 -0.52 0.04 -0.56 0.36 c0.12 -0.12 0.2 -0.24 0.4 -0.28 c0.04 0 0.16 0.04 0.16 -0.08 l0 0 l0 0 c0.12 0.12 0.16 -0.08 0.24 -0.04 l0 -0.04 l-0.04 0 c-0.04 0.04 -0.12 0.08 -0.2 0.08 l0 0 l0 0 z M37.195 36.04 c0 0 -0.04 0.04 -0.04 0.08 c0 0 0.04 0.04 0.08 0.04 l0.04 -0.04 c0 -0.04 -0.04 -0.04 -0.08 -0.08 z M36.995 33.4 l0.04 -0.04 c-0.04 -0.04 -0.08 -0.04 -0.12 -0.08 c-0.04 0 -0.04 0.04 -0.04 0.04 c0 0.08 0.04 0.08 0.12 0.08 z M36.835 32.84 c0 0 -0.04 0 -0.08 0.04 c0.04 0 0.08 0.04 0.08 0.08 c0.08 -0.04 0.12 0 0.12 -0.08 c0 -0.04 -0.08 -0.04 -0.12 -0.04 z M36.755 34.16 l-0.08 0 c-0.08 0.08 -0.2 0.16 -0.32 0.24 c0.16 0 0.28 -0.08 0.4 -0.16 l0 -0.08 z M36.515 33.72 l0 0 s-0.08 0 -0.12 0.04 l0 0.04 c0.08 0.08 0.12 -0.04 0.12 -0.08 l0 0 z M36.394999999999996 32.08 c-0.08 0 -0.12 0.04 -0.04 0.2 l0 0 l0 0 l0 0 l0.04 0.04 l-0.04 -0.04 c0.08 0 0.08 -0.08 0.12 -0.12 c0 -0.08 -0.08 -0.08 -0.08 -0.08 z M36.355 33.12 c-0.16 0.04 -0.28 0.08 -0.44 0.12 c0.16 0.08 0.32 0 0.44 0 c0 0 0.04 -0.04 0.04 -0.08 z M36.155 34.4 c-0.08 0.04 0.04 0.12 0 0.2 l0.04 0.04 s0.04 -0.04 0.08 -0.04 c-0.04 -0.08 -0.08 -0.16 -0.12 -0.2 z M36.195 33.8 c0.24 -0.2 -0.2 -0.12 -0.08 -0.24 c0 0 -0.04 0 -0.08 -0.04 c0 0.04 -0.04 0.08 -0.08 0.12 c0.08 0.04 0.2 0.16 0.24 0.16 z M35.875 33.64 c-0.04 -0.04 -0.08 -0.04 -0.12 -0.08 c0 0.04 0.04 0.12 0.08 0.12 s0.04 -0.04 0.04 -0.04 z M35.755 33.04 l0 0.04 c0.08 -0.04 0.12 -0.04 0.2 -0.08 l0 -0.04 c-0.08 0.04 -0.16 0.04 -0.2 0.08 z M35.915 33.72 c0 0.04 -0.04 0.04 -0.08 0.08 c0.04 0 0.08 0.04 0.08 0.04 c0.04 0 0.08 -0.04 0.08 -0.04 c0 -0.04 -0.04 -0.04 -0.08 -0.08 z M36.195 31.64 c-0.16 0.12 -0.36 0.12 -0.52 0.16 c-0.12 0 -0.24 0.12 -0.36 0.2 c0 0.04 0.04 0.04 0.08 0.04 c0.12 -0.04 0.24 -0.08 0.4 -0.16 l0 0.04 c0.16 -0.08 0.32 -0.12 0.48 -0.2 l0 -0.08 l-0.08 0 z M35.714999999999996 32.32 l0 0 c-0.16 0.04 -0.32 0.12 -0.52 0.2 c0.16 0 0.28 0 0.36 -0.04 c0.08 0 0.12 -0.08 0.16 -0.16 z M35.355 30.36 c0.08 -0.04 0.16 0 0.12 -0.08 c0 -0.04 -0.04 -0.08 -0.04 -0.12 c-0.04 0.08 -0.08 0.12 -0.12 0.16 z M35.394999999999996 30.08 c-0.04 0 -0.04 0.04 -0.08 0.04 c0.04 0 0.04 0.04 0.08 0.04 s0.04 -0.04 0.12 -0.08 c-0.08 0 -0.08 -0.04 -0.12 0 z M35.435 30.68 c-0.04 0.08 -0.12 0.12 -0.2 0.16 l0 0.04 l0.24 -0.12 c0 0 0 -0.04 -0.04 -0.08 z M35.235 29.36 c-0.16 0 -0.28 -0.08 -0.4 0.08 c0.12 0 0.28 0.04 0.4 -0.08 z M34.835 31.32 c-0.04 0.04 -0.08 0.08 -0.12 0.08 c0 0.04 0.04 0.04 0.04 0.04 c0.04 -0.04 0.08 -0.04 0.12 -0.08 z M34.635 29.240000000000002 c0.04 0.04 0.08 0 0.2 -0.08 c-0.12 0 -0.16 0 -0.2 0.04 l0 0.04 z M34.955 26.52 c0.28 0 0.56 0.04 0.72 -0.24 c-0.28 -0.04 -0.44 0.2 -0.72 0.24 z M35.394999999999996 25 l0 0.04 l0.2 0 c0.08 0.04 0.08 -0.04 0.08 -0.08 c-0.08 0 -0.2 0 -0.28 0.04 z M35.595 25.8 c0.08 -0.04 0.12 -0.12 0.12 -0.2 l-0.04 -0.04 c-0.04 0.08 -0.08 0.12 -0.12 0.2 z M35.915 26 c0.04 0 0.08 -0.08 0.12 -0.12 l-0.08 0 c-0.04 0 -0.12 -0.04 -0.16 0.04 c0 0 0.08 0.08 0.12 0.08 z M34.795 17.76 c-0.08 -0.08 -0.16 0 -0.08 0.04 l0 0 c0 -0.04 0.04 -0.04 0.08 -0.04 z M34.035 17.84 c-0.12 0 -0.12 0.04 -0.2 0.2 c0.12 -0.12 0.16 -0.16 0.24 -0.16 z M33.995 18.48 c0.04 -0.04 -0.04 -0.08 -0.04 -0.16 c-0.04 0.04 -0.08 0.08 -0.08 0.12 c0 0.08 0.08 0.08 0.12 0.04 z M33.835 16.84 c-0.36 -0.04 -0.08 0.16 -0.12 0.2 c0 0.04 0.04 0.08 0.04 0.08 c0.28 -0.08 -0.2 -0.2 0.08 -0.28 z M33.555 17.04 c-0.04 -0.08 -0.08 -0.04 -0.08 -0.04 c-0.08 0 -0.16 0 -0.16 0.04 c0.04 0.12 0.12 -0.04 0.16 0.04 c0.04 0 0.08 -0.04 0.08 -0.04 z M32.795 17.08 c0 0.04 -0.04 0.04 0 0.04 c0 0.04 0 0.04 0.04 0.04 c0.2 -0.16 0.44 -0.28 0.68 -0.4 c-0.32 0 -0.52 0.2 -0.72 0.32 z M31.475 16.84 c-0.08 0.04 -0.2 0 -0.16 0.12 c0 0.12 0.08 0 0.16 0 c0.12 -0.08 0.28 -0.16 0.4 -0.24 l0 -0.12 l-0.04 0 c-0.08 0.16 -0.28 0.16 -0.36 0.24 z M31.555 18.16 c0 -0.04 -0.04 -0.04 -0.04 -0.04 c-0.04 0 -0.08 0.04 -0.08 0.08 c0 0 0.04 0.04 0.08 0.04 c0 0 0.04 -0.04 0.04 -0.08 z M31.235 31.2 c-0.08 0 -0.12 0 -0.16 0.08 l0 0.04 c0.12 0.04 0.08 -0.12 0.16 -0.12 z M31.075 29.36 c0.2 0.04 0.16 -0.16 0.24 -0.24 c-0.2 -0.08 -0.12 0.2 -0.28 0.2 c0 0.04 0 0.04 0.04 0.04 z M31.155 31.36 c-0.08 0 -0.08 0.08 -0.12 0.12 l0.04 0.04 c0.08 0 0.16 -0.04 0.24 -0.08 c-0.08 -0.04 -0.12 -0.08 -0.16 -0.08 z M31.155 23.32 c0.04 0 0.08 -0.04 0.12 -0.08 c-0.04 -0.04 -0.08 -0.04 -0.08 -0.04 c-0.04 0.04 -0.08 0.08 -0.08 0.12 c0 0 0 0.04 0.04 0 z M31.115 21.56 c0.04 0 0.04 -0.04 0.08 -0.08 c-0.04 -0.04 -0.08 -0.08 -0.12 -0.08 c0 0.04 -0.04 0.04 -0.04 0.08 s0.04 0.08 0.08 0.08 z M31.075 16.96 c-0.08 0.08 -0.2 0.04 -0.2 0.16 l0 0.04 c0.12 -0.04 0.2 -0.08 0.24 -0.16 z M30.195 26.08 l-0.12 0.12 c0 0 0.04 0.04 0.04 0.08 c0.04 -0.08 0.08 -0.12 0.12 -0.16 z M30.115 30.759999999999998 c-0.16 -0.04 -0.12 0.12 -0.2 0.16 c0.16 0.08 0.12 -0.08 0.2 -0.12 l0 -0.04 z M29.515 16.68 c-0.04 0 -0.04 0.04 -0.08 0.04 c0.04 0.04 0.08 0.04 0.08 0.04 c0.04 -0.04 0.12 0.04 0.12 -0.08 c-0.04 -0.12 -0.08 0.08 -0.12 0 z M29.435 18 c0.12 -0.04 0.2 -0.04 0.32 -0.08 c-0.12 -0.04 -0.2 0 -0.28 0.04 c-0.04 0 0 0.04 -0.04 0.04 z M29.755 18.84 c-0.12 0 -0.08 0.16 -0.16 0.16 l0.2 0 c0.24 -0.12 -0.12 -0.08 -0.04 -0.16 z M29.674999999999997 29.52 c-0.04 0.04 0 0.08 0 0.08 c0.08 -0.04 0.16 -0.12 0.24 -0.2 c-0.16 -0.04 -0.2 0.04 -0.24 0.12 z M29.875 31.4 c0.04 0.12 0.12 -0.04 0.16 0 l0.08 0 c-0.04 -0.04 -0.08 -0.04 -0.12 -0.08 c-0.04 0 -0.12 0.04 -0.12 0.08 z M29.955 32.12 c0.08 0 0.12 -0.04 0.2 -0.04 c-0.04 -0.04 -0.16 0 -0.08 -0.12 c-0.12 0 -0.08 0.12 -0.12 0.16 z M30.354999999999997 26.36 c0.04 -0.08 -0.04 -0.12 -0.08 -0.12 c-0.08 0 -0.12 0.04 -0.12 0.12 c0 0.04 0.04 0.12 0.08 0.12 c0.04 -0.04 0.12 -0.08 0.12 -0.12 z M30.275 26.08 c0.12 -0.04 0.2 -0.04 0.36 -0.08 c-0.16 -0.04 -0.28 -0.08 -0.36 0.08 z M30.634999999999998 17.52 c0 0 0.04 0.08 0.04 0.04 c0.08 0 0.2 -0.04 0.16 -0.12 c0 -0.04 0 -0.04 -0.04 -0.08 c0 0.12 -0.16 0.04 -0.16 0.16 z M30.755 25.119999999999997 c0.04 0 0.04 0.04 0.04 0.04 c0.08 -0.04 0.16 -0.04 0.24 -0.08 c-0.04 -0.04 -0.08 -0.08 -0.08 -0.04 c-0.08 0 -0.12 0.04 -0.2 0.08 z M31.115 31.04 c-0.08 0.04 -0.12 0.04 -0.12 0.08 l0.04 0.04 c0.04 0 0.08 -0.04 0.08 -0.04 l0 -0.08 z M31.034999999999997 35 c0.04 0 0.08 -0.04 0.12 -0.04 c-0.04 -0.04 -0.04 -0.04 -0.08 -0.04 s-0.04 0 -0.08 0.04 c0.04 0 0.04 0.04 0.04 0.04 z M31.155 34.44 c0 -0.12 0.04 -0.16 0.04 -0.2 l-0.08 0 c0 0.04 0 0.08 0.04 0.2 z M31.314999999999998 35.519999999999996 c0.08 0 0.04 -0.12 0 -0.12 l-0.08 0.08 c0 0 0.04 0.04 0.08 0.04 z M31.555 31.64 c0.08 0 0.04 0 0.04 -0.04 c0 -0.08 -0.04 -0.08 -0.12 -0.08 l-0.08 0.04 c0.04 0.08 0.12 0.04 0.16 0.08 z M31.634999999999998 29.2 c0.04 -0.12 -0.08 -0.08 -0.16 -0.08 c-0.04 0 -0.12 -0.04 -0.12 0.04 c0 0.12 0.04 0.2 0.12 0.2 s0.16 -0.08 0.16 -0.16 z M31.515 27.68 c0.04 0 0.16 0 0.16 -0.08 c0 -0.12 -0.12 -0.16 -0.2 -0.16 c-0.04 0 -0.12 0.04 -0.08 0.08 c0 0.08 0.04 0.16 0.12 0.16 z M31.674999999999997 21.6 c0 0.04 0 0.04 0.04 0.04 c0.04 -0.04 0.08 -0.08 0.12 -0.16 l-0.04 0 c-0.08 0 -0.12 0.08 -0.12 0.12 z M31.875 23.04 l-0.04 -0.04 c-0.04 0.04 -0.08 0.04 -0.08 0.08 c0 0 0 0.04 0.04 0.08 c0.04 -0.04 0.04 -0.08 0.08 -0.12 z M31.795 35.8 c0 -0.04 0.04 -0.04 0.08 -0.08 c0 0 -0.04 -0.04 -0.08 -0.04 l-0.08 0.08 c0 0 0.04 0.04 0.08 0.04 z M31.795 27.52 c0.04 -0.04 0.04 -0.08 0.08 -0.12 l-0.04 -0.04 c-0.04 0.04 -0.08 0.08 -0.08 0.12 z M31.915 17 c0.04 -0.12 -0.08 -0.12 -0.12 -0.2 c0 0.12 -0.04 0.2 0 0.24 c0.04 0.08 0.12 0 0.12 -0.04 z M32.035 29.64 c0 0 0.04 0.08 0.04 0.04 c0.04 0 0.08 0 0.08 -0.04 s-0.04 -0.04 -0.04 -0.08 c-0.04 0.04 -0.04 0.08 -0.08 0.08 z M32.155 26.28 c0 0.04 0 0.12 0.08 0.08 c0 0 0.04 -0.04 0.08 -0.04 c-0.04 -0.04 -0.08 -0.08 -0.12 -0.08 z M32.074999999999996 30.560000000000002 c0.12 0.04 0.16 -0.08 0.24 -0.12 l0 -0.04 c-0.12 -0.04 -0.16 0.12 -0.24 0.16 z M32.515 35.2 c-0.04 -0.12 -0.12 -0.08 -0.2 -0.08 c0.08 0 0.12 0.12 0.2 0.08 z M32.394999999999996 32.72 c-0.04 0.04 -0.08 0.08 -0.08 0.12 c0 0.08 0.12 0 0.16 0.04 l0.04 -0.04 z M32.155 25.32 c1 -0.24 3 -0.84 3 -0.84 s0.8 -1.12 0.92 -1.8 c0.08 -0.6 0 -1.24 -0.2 -1.84 c-0.2 -0.64 -0.6 -1.36 -1.24 -1.64 c-0.36 -0.16 -0.72 -0.2 -1.08 -0.2 c-0.04 0.04 -0.08 0.04 -0.16 0.04 c-0.32 0.04 -0.84 0.12 -0.84 0.2 c-0.24 2 -0.36 4.04 -0.4 6.08 z M33.035 27.4 l0 0 c0.04 -0.08 0.12 -0.04 0.2 -0.04 c0.04 0 0.04 -0.04 0.08 -0.04 c0 -0.04 -0.04 -0.04 -0.04 -0.04 c-0.16 0 -0.36 0.04 -0.52 0.16 c0.12 0 0.2 0 0.28 -0.04 l0 0.04 l0 0 c0 0.04 0.04 0.08 0.08 0.08 s0.08 -0.04 0.08 -0.04 c0 -0.12 -0.12 0 -0.16 -0.04 l0 -0.04 l0 0 z M32.595 28.04 l0.04 0.04 c0.12 0 0.04 -0.12 0.08 -0.16 c-0.08 0 -0.08 0.08 -0.12 0.12 z M32.795 28.28 c0 -0.04 0 -0.08 -0.04 -0.12 c-0.04 0.08 -0.08 0.12 -0.08 0.12 l0.04 0.04 c0.04 0 0.08 -0.04 0.08 -0.04 z M32.875 29.16 l0 0.04 c0.12 -0.04 0.24 -0.04 0.36 -0.08 l0 -0.04 c-0.12 0.04 -0.24 0.04 -0.36 0.08 z M32.995 29.84 l0.12 -0.12 c-0.04 0 -0.04 -0.04 -0.04 -0.04 c-0.08 0.04 -0.12 0.08 -0.16 0.12 c0.04 0 0.08 0.04 0.08 0.04 z M33.275 29.84 l0 -0.08 l0.04 -0.04 c0.08 0.04 0.12 0.08 0.2 -0.04 c-0.16 0.08 -0.12 -0.08 -0.2 -0.08 c-0.04 0 -0.08 0.04 -0.08 0.08 c0 0.08 -0.12 0.16 -0.04 0.24 c0.04 0.04 0.12 0.04 0.2 0.08 c-0.04 -0.08 0.12 0.04 0.08 -0.08 c0 -0.04 -0.08 -0.12 -0.16 -0.04 c0 0 0 -0.04 -0.04 -0.04 z M33.475 28.84 c0.04 0 0.04 -0.04 0.08 -0.08 l-0.08 -0.08 l-0.04 0.04 c0.04 0.04 -0.04 0.12 0.04 0.12 z M33.795 27.52 c0.04 0 0.08 -0.04 0 -0.08 c-0.08 0 -0.16 0 -0.24 0.12 c0.08 0 0.16 -0.04 0.24 -0.04 z M33.795 27.28 c0.04 -0.04 0.08 0 0.08 -0.08 c0 -0.04 -0.04 -0.16 -0.08 -0.16 c-0.12 0 -0.08 0.08 -0.04 0.12 c-0.04 0.08 0 0.12 0.04 0.12 z M33.915 26.759999999999998 c0.04 -0.04 0 -0.08 0 -0.08 c-0.08 0 -0.2 -0.04 -0.2 0 c-0.12 0.16 -0.28 0.12 -0.44 0.2 c-0.04 0.04 -0.12 0.08 -0.16 0.16 l0 0.04 c0.16 -0.04 0.32 -0.04 0.44 -0.08 c0.08 -0.04 0.08 -0.12 0.12 -0.04 c0.12 -0.08 0.2 -0.12 0.24 -0.2 z M33.955 27.08 c0 0.12 0.12 0 0.12 0.08 c0.04 0 0.12 0 0.08 -0.04 c0 -0.08 -0.04 -0.08 -0.08 -0.08 s-0.12 -0.04 -0.12 0.04 z M34.355 28.04 c0.04 0 0.04 -0.04 0.04 -0.08 l-0.04 0 c-0.08 0.08 -0.28 0.08 -0.32 0.28 c0.12 -0.12 0.2 -0.2 0.32 -0.2 z M34.074999999999996 26.880000000000003 c0.16 -0.04 0.32 0 0.4 -0.2 c-0.16 0.08 -0.28 0.12 -0.4 0.2 z M34.555 29 c-0.08 0.08 -0.08 0.12 -0.12 0.2 c0.08 -0.04 0.16 -0.08 0.12 -0.2 z M34.475 30.04 l0.24 0 l0 -0.04 l-0.24 0 l0 0.04 z M34.995 32.2 l0 -0.04 c-0.08 0.04 -0.16 0.04 -0.28 0.08 c0.12 0 0.2 0.04 0.28 -0.04 z M35.435 33.12 c0.08 -0.04 0.16 -0.08 0.28 -0.12 c-0.04 -0.04 -0.04 -0.04 -0.08 -0.04 c-0.2 0.04 -0.4 0.08 -0.56 0.24 l0 0.04 c0.04 0.04 0.08 0.04 0.08 0 c0.08 -0.08 0.16 -0.12 0.28 -0.12 z M35.795 35.36 c0.08 0 0.04 -0.08 0.12 -0.12 l-0.04 -0.04 c-0.08 0.04 -0.12 0.08 -0.16 0.12 c0.04 0 0.04 0.04 0.08 0.04 z M35.915 34.12 c0.08 -0.04 0.16 -0.08 0.24 -0.16 l-0.04 0 c-0.04 0.04 -0.12 0.08 -0.16 0.08 c-0.08 0.04 -0.08 0.08 -0.04 0.08 z M36.115 35.08 c0.04 0 0.08 -0.04 0.12 -0.12 l0 0 l0 0 c0.04 0.04 0.12 0 0.16 -0.04 l0 -0.04 c-0.08 0.04 -0.16 -0.04 -0.16 0.08 l0 0 l0 0 c-0.04 0 -0.08 0.04 -0.12 0.04 l0 -0.04 s0 -0.12 -0.08 -0.04 c-0.04 0 0.04 0.16 0.08 0.16 z M36.315 36.64 c0.04 0.04 0.04 0 0.08 -0.04 c-0.04 0 -0.04 -0.04 -0.08 -0.04 s-0.04 0.04 -0.08 0.04 c0.04 0.04 0.04 0.04 0.08 0.04 z M36.195 36.12 c0.08 -0.04 0.12 -0.08 0.2 -0.12 c-0.08 -0.04 -0.16 -0.04 -0.16 0.04 c-0.04 0.04 -0.04 0.04 -0.04 0.08 z M36.675 35.24 c0.08 0 0.04 -0.08 0.04 -0.12 c-0.04 0 -0.08 0.04 -0.08 0.04 c-0.08 0.04 -0.04 0.08 0.04 0.08 z M36.755 34.76 l0.04 -0.04 c-0.08 -0.16 -0.2 0.12 -0.28 -0.04 c0.04 0.2 0.16 0 0.24 0.08 z M36.755 34.480000000000004 c0.08 0 0.12 0.04 0.2 0.04 c0.04 0 0.04 0 0.04 -0.04 c-0.04 -0.08 0 -0.16 -0.08 -0.2 c0 0 -0.08 0.04 -0.08 0.08 c-0.04 0.04 0.04 0 0.04 0.04 c-0.04 0.04 -0.08 0.04 -0.12 0.08 z M37.035 36.72 c0.08 0 0.2 -0.08 0.12 -0.12 c-0.08 -0.12 -0.16 0.04 -0.28 0.08 c0.08 0 0.12 0.04 0.16 0.04 z M37.195 36.36 c0.04 0 0.08 -0.04 0.12 -0.04 c-0.04 0 -0.08 -0.04 -0.08 -0.04 c-0.04 0 -0.08 0.04 -0.08 0.04 z M37.235 35.88 c0.12 -0.12 0.2 -0.04 0.32 0.04 c0 0 0.08 0 0.08 -0.04 c0.04 -0.04 0 -0.08 -0.04 -0.08 c-0.16 -0.08 -0.28 -0.04 -0.36 0.08 z M37.435 36.04 c0 0.16 0.12 0.04 0.16 0.08 c0 0.04 -0.08 0.08 0 0.08 c0.12 0 0.04 -0.12 0.08 -0.2 c0 0 0 -0.04 -0.04 -0.04 c-0.08 -0.04 -0.04 0.04 -0.08 0.08 c0 -0.04 0 -0.12 -0.08 -0.12 c-0.08 0.04 0 0.08 -0.04 0.12 z M37.714999999999996 36.64 l0 -0.04 l-0.24 0 c0.08 0.08 0.16 0.04 0.24 0.04 z M37.875 36.44 c0 0 0.08 -0.04 0.04 -0.08 c0 -0.04 -0.04 -0.16 -0.08 -0.16 c-0.08 0 -0.04 0.08 -0.08 0.12 c0 0.08 0.04 0.12 0.12 0.12 z M38.155 36.08 c0.08 0 0.04 -0.04 0.04 -0.04 c0.04 -0.12 0 -0.16 -0.04 -0.16 c-0.04 0.04 -0.08 0.08 -0.12 0.16 c0.04 0 0.08 0.04 0.12 0.04 z M38.315 36.16 c-0.08 0.12 0 0.16 0.08 0.12 c0 -0.04 -0.04 -0.08 -0.08 -0.12 z M38.915 36.24 c0.04 0 0.08 0 0.08 -0.08 c0 -0.04 0 -0.08 -0.08 -0.08 c-0.04 0 -0.12 0 -0.08 0.08 z M27.515 19.08 c0.24 0.04 0.24 0.04 0.2 0.16 c0 -0.16 -0.12 -0.08 -0.2 -0.16 z"></path></g>

</svg>