{
  "accessors": [
    {
      "bufferView": 2,
      "componentType": 5126,
      "count": 11425,
      "max": [
        1.7791630029678345,
        19.37642478942871,
        22.09977149963379
      ],
      "min": [
        -23.5729923248291,
        -14.811884880065918,
        -2.608664035797119
      ],
      "type": "VEC3"
    },
    {
      "bufferView": 2,
      "byteOffset": 137100,
      "componentType": 5126,
      "count": 11425,
      "max": [
        1.0,
        1.0,
        1.0
      ],
      "min": [
        -1.0,
        -1.0,
        -1.0
      ],
      "type": "VEC3"
    },
    {
      "bufferView": 3,
      "componentType": 5126,
      "count": 11425,
      "max": [
        1.0,
        0.999975323677063,
        1.0,
        1.0
      ],
      "min": [
        -1.0,
        -0.9999752640724182,
        -1.0,
        1.0
      ],
      "type": "VEC4"
    },
    {
      "bufferView": 1,
      "componentType": 5126,
      "count": 11425,
      "max": [
        1.0,
        0.9958459734916687
      ],
      "min": [
        0.0,
        -0.0
      ],
      "type": "VEC2"
    },
    {
      "bufferView": 0,
      "componentType": 5125,
      "count": 29244,
      "type": "SCALAR"
    }
  ],
  "asset": {
    "extras": {
      "author": "Marc Ed (https://sketchfab.com/marc.edouard.lepine17)",
      "license": "CC-BY-4.0 (http://creativecommons.org/licenses/by/4.0/)",
      "source": "https://sketchfab.com/3d-models/unfc-computer-suitcase-28232d70de0a4d9da2e762d1d0015640",
      "title": "UNFC computer suitcase"
    },
    "generator": "Sketchfab-12.97.0",
    "version": "2.0"
  },
  "bufferViews": [
    {
      "buffer": 0,
      "byteLength": 116976,
      "name": "floatBufferViews",
      "target": 34963
    },
    {
      "buffer": 0,
      "byteLength": 91400,
      "byteOffset": 116976,
      "byteStride": 8,
      "name": "floatBufferViews",
      "target": 34962
    },
    {
      "buffer": 0,
      "byteLength": 274200,
      "byteOffset": 208376,
      "byteStride": 12,
      "name": "floatBufferViews",
      "target": 34962
    },
    {
      "buffer": 0,
      "byteLength": 182800,
      "byteOffset": 482576,
      "byteStride": 16,
      "name": "floatBufferViews",
      "target": 34962
    }
  ],
  "buffers": [
    {
      "byteLength": 665376,
      "uri": "scene.bin"
    }
  ],
  "images": [
    {
      "uri": "textures/Material__16_baseColor.jpeg"
    },
    {
      "uri": "textures/Material__16_metallicRoughness.png"
    },
    {
      "uri": "textures/Material__16_emissive.jpeg"
    },
    {
      "uri": "textures/Material__16_normal.png"
    }
  ],
  "materials": [
    {
      "doubleSided": true,
      "emissiveFactor": [
        1.0,
        1.0,
        1.0
      ],
      "emissiveTexture": {
        "index": 2
      },
      "name": "Material__16",
      "normalTexture": {
        "index": 3
      },
      "pbrMetallicRoughness": {
        "baseColorTexture": {
          "index": 0
        },
        "metallicRoughnessTexture": {
          "index": 1
        }
      }
    }
  ],
  "meshes": [
    {
      "name": "defaultMaterial",
      "primitives": [
        {
          "attributes": {
            "NORMAL": 1,
            "POSITION": 0,
            "TANGENT": 2,
            "TEXCOORD_0": 3
          },
          "indices": 4,
          "material": 0,
          "mode": 4
        }
      ]
    }
  ],
  "nodes": [
    {
      "children": [
        1
      ],
      "matrix": [
        1.0,
        0.0,
        0.0,
        0.0,
        0.0,
        2.220446049250313e-16,
        -1.0,
        0.0,
        0.0,
        1.0,
        2.220446049250313e-16,
        0.0,
        0.0,
        0.0,
        0.0,
        1.0
      ],
      "name": "Sketchfab_model"
    },
    {
      "children": [
        2
      ],
      "matrix": [
        1.0,
        0.0,
        0.0,
        0.0,
        0.0,
        -4.371139006309477e-08,
        0.999999999999999,
        0.0,
        0.0,
        -0.999999999999999,
        -4.371139006309477e-08,
        0.0,
        0.0,
        0.0,
        0.0,
        1.0
      ],
      "name": "Collada visual scene group"
    },
    {
      "children": [
        3
      ],
      "matrix": [
        1.532125,
        0.0,
        0.0,
        0.0,
        0.0,
        1.439727,
        -0.524017,
        0.0,
        0.0,
        0.524017,
        1.439727,
        0.0,
        15.72908,
        5.276202,
        -42.326611,
        1.0
      ],
      "name": "Computer_Low"
    },
    {
      "mesh": 0,
      "name": "defaultMaterial"
    }
  ],
  "samplers": [
    {
      "magFilter": 9729,
      "minFilter": 9987,
      "wrapS": 10497,
      "wrapT": 10497
    }
  ],
  "scene": 0,
  "scenes": [
    {
      "name": "Sketchfab_Scene",
      "nodes": [
        0
      ]
    }
  ],
  "textures": [
    {
      "sampler": 0,
      "source": 0
    },
    {
      "sampler": 0,
      "source": 1
    },
    {
      "sampler": 0,
      "source": 2
    },
    {
      "sampler": 0,
      "source": 3
    }
  ]
}
