{
  "accessors": [
    {
      "bufferView": 2,
      "componentType": 5126,
      "count": 366,
      "max": [
        128.0374298095703,
        0.9320287704467773,
        4.005455493927002
      ],
      "min": [
        -0.9236335754394531,
        -42.912235260009766,
        -4.134527206420898
      ],
      "type": "VEC3"
    },
    {
      "bufferView": 2,
      "byteOffset": 4392,
      "componentType": 5126,
      "count": 366,
      "max": [
        1.0,
        1.0,
        1.0
      ],
      "min": [
        -1.0,
        -1.0,
        -1.0
      ],
      "type": "VEC3"
    },
    {
      "bufferView": 3,
      "componentType": 5126,
      "count": 366,
      "max": [
        0.9998791217803955,
        1.0,
        0.9999991059303284,
        1.0
      ],
      "min": [
        -0.999885082244873,
        -1.0,
        -1.0,
        -1.0
      ],
      "type": "VEC4"
    },
    {
      "bufferView": 1,
      "componentType": 5126,
      "count": 366,
      "max": [
        0.9799999594688416,
        0.9750185012817383
      ],
      "min": [
        0.019999999552965164,
        0.023844610899686813
      ],
      "type": "VEC2"
    },
    {
      "bufferView": 0,
      "componentType": 5125,
      "count": 576,
      "type": "SCALAR"
    },
    {
      "bufferView": 2,
      "byteOffset": 8784,
      "componentType": 5126,
      "count": 19028,
      "max": [
        122.07559204101563,
        3.7224502563476563,
        3.8922064304351807
      ],
      "min": [
        -3.7302160263061523,
        -37.56547164916992,
        -1.4415068626403809
      ],
      "type": "VEC3"
    },
    {
      "bufferView": 2,
      "byteOffset": 237120,
      "componentType": 5126,
      "count": 19028,
      "max": [
        1.0,
        1.0,
        1.0
      ],
      "min": [
        -1.0,
        -1.0,
        -1.0
      ],
      "type": "VEC3"
    },
    {
      "bufferView": 3,
      "byteOffset": 5856,
      "componentType": 5126,
      "count": 19028,
      "max": [
        1.0,
        1.0,
        1.0,
        1.0
      ],
      "min": [
        -1.0,
        -1.0,
        -1.0,
        1.0
      ],
      "type": "VEC4"
    },
    {
      "bufferView": 1,
      "byteOffset": 2928,
      "componentType": 5126,
      "count": 19028,
      "max": [
        0.984840989112854,
        0.9685951471328735
      ],
      "min": [
        0.02584303915500641,
        0.02333078905940056
      ],
      "type": "VEC2"
    },
    {
      "bufferView": 0,
      "byteOffset": 2304,
      "componentType": 5125,
      "count": 40992,
      "type": "SCALAR"
    }
  ],
  "asset": {
    "extras": {
      "author": "asd123a (https://sketchfab.com/asd123a)",
      "license": "CC-BY-4.0 (http://creativecommons.org/licenses/by/4.0/)",
      "source": "https://sketchfab.com/3d-models/mechanical-keyboard-2-b979dc3942fe4c55894e22bbc9923845",
      "title": "Mechanical Keyboard 2"
    },
    "generator": "Sketchfab-12.65.0",
    "version": "2.0"
  },
  "bufferViews": [
    {
      "buffer": 0,
      "byteLength": 166272,
      "name": "floatBufferViews",
      "target": 34963
    },
    {
      "buffer": 0,
      "byteLength": 155152,
      "byteOffset": 166272,
      "byteStride": 8,
      "name": "floatBufferViews",
      "target": 34962
    },
    {
      "buffer": 0,
      "byteLength": 465456,
      "byteOffset": 321424,
      "byteStride": 12,
      "name": "floatBufferViews",
      "target": 34962
    },
    {
      "buffer": 0,
      "byteLength": 310304,
      "byteOffset": 786880,
      "byteStride": 16,
      "name": "floatBufferViews",
      "target": 34962
    }
  ],
  "buffers": [
    {
      "byteLength": 1097184,
      "uri": "scene.bin"
    }
  ],
  "images": [
    {
      "uri": "textures/BackPlate_baseColor.png"
    },
    {
      "uri": "textures/BackPlate_metallicRoughness.png"
    },
    {
      "uri": "textures/BackPlate_normal.png"
    },
    {
      "uri": "textures/Keycaps_baseColor.png"
    },
    {
      "uri": "textures/Keycaps_metallicRoughness.png"
    },
    {
      "uri": "textures/Keycaps_normal.png"
    }
  ],
  "materials": [
    {
      "doubleSided": true,
      "name": "BackPlate",
      "normalTexture": {
        "index": 2
      },
      "pbrMetallicRoughness": {
        "baseColorTexture": {
          "index": 0
        },
        "metallicRoughnessTexture": {
          "index": 1
        }
      }
    },
    {
      "doubleSided": true,
      "name": "Keycaps",
      "normalTexture": {
        "index": 5
      },
      "pbrMetallicRoughness": {
        "baseColorTexture": {
          "index": 3
        },
        "metallicRoughnessTexture": {
          "index": 4
        }
      }
    }
  ],
  "meshes": [
    {
      "name": "BackPlate_BackPlate_0",
      "primitives": [
        {
          "attributes": {
            "NORMAL": 1,
            "POSITION": 0,
            "TANGENT": 2,
            "TEXCOORD_0": 3
          },
          "indices": 4,
          "material": 0,
          "mode": 4
        }
      ]
    },
    {
      "name": "Keycap_Keycaps_0",
      "primitives": [
        {
          "attributes": {
            "NORMAL": 6,
            "POSITION": 5,
            "TANGENT": 7,
            "TEXCOORD_0": 8
          },
          "indices": 9,
          "material": 1,
          "mode": 4
        }
      ]
    }
  ],
  "nodes": [
    {
      "children": [
        1
      ],
      "matrix": [
        1.0,
        0.0,
        0.0,
        0.0,
        0.0,
        2.220446049250313e-16,
        -1.0,
        0.0,
        0.0,
        1.0,
        2.220446049250313e-16,
        0.0,
        0.0,
        0.0,
        0.0,
        1.0
      ],
      "name": "Sketchfab_model"
    },
    {
      "children": [
        2
      ],
      "matrix": [
        1.0,
        0.0,
        0.0,
        0.0,
        0.0,
        0.0,
        1.0,
        0.0,
        0.0,
        -1.0,
        0.0,
        0.0,
        0.0,
        0.0,
        0.0,
        1.0
      ],
      "name": "5ac4256dfd7a4059a9fc85dd6b3c7732.fbx"
    },
    {
      "children": [
        3,
        5
      ],
      "name": "RootNode"
    },
    {
      "children": [
        4
      ],
      "matrix": [
        1.0,
        0.0,
        0.0,
        0.0,
        0.0,
        2.220446049250313e-16,
        -1.0,
        0.0,
        0.0,
        1.0,
        2.220446049250313e-16,
        0.0,
        -63.49630355834961,
        -2.3631811141967773,
        -21.034868240356445,
        1.0
      ],
      "name": "BackPlate"
    },
    {
      "mesh": 0,
      "name": "BackPlate_BackPlate_0"
    },
    {
      "children": [
        6
      ],
      "matrix": [
        1.0,
        0.0,
        0.0,
        0.0,
        0.0,
        2.220446049250313e-16,
        -1.0,
        0.0,
        0.0,
        1.0,
        2.220446049250313e-16,
        0.0,
        -59.136844635009766,
        -0.2496795654296875,
        -16.847740173339844,
        1.0
      ],
      "name": "Keycap"
    },
    {
      "mesh": 1,
      "name": "Keycap_Keycaps_0"
    }
  ],
  "samplers": [
    {
      "magFilter": 9729,
      "minFilter": 9987,
      "wrapS": 10497,
      "wrapT": 10497
    }
  ],
  "scene": 0,
  "scenes": [
    {
      "name": "Sketchfab_Scene",
      "nodes": [
        0
      ]
    }
  ],
  "textures": [
    {
      "sampler": 0,
      "source": 0
    },
    {
      "sampler": 0,
      "source": 1
    },
    {
      "sampler": 0,
      "source": 2
    },
    {
      "sampler": 0,
      "source": 3
    },
    {
      "sampler": 0,
      "source": 4
    },
    {
      "sampler": 0,
      "source": 5
    }
  ]
}
